<svg width="32" height="33" viewBox="0 0 32 33" fill="none" xmlns="http://www.w3.org/2000/svg">
<path d="M29.2934 25.0453C29.2934 25.5253 29.1867 26.0186 28.9601 26.4986C28.7334 26.9786 28.4401 27.432 28.0534 27.8586C27.4001 28.5786 26.6801 29.0986 25.8667 29.432C25.0667 29.7653 24.2001 29.9386 23.2667 29.9386C21.9067 29.9386 20.4534 29.6186 18.9201 28.9653C17.3867 28.312 15.8534 27.432 14.3334 26.3253C12.8001 25.2053 11.3467 23.9653 9.96008 22.592C8.58675 21.2053 7.34675 19.752 6.24008 18.232C5.14675 16.712 4.26675 15.192 3.62675 13.6853C2.98675 12.1653 2.66675 10.712 2.66675 9.32531C2.66675 8.41864 2.82675 7.55197 3.14675 6.75197C3.46675 5.93864 3.97341 5.19197 4.68008 4.52531C5.53341 3.68531 6.46675 3.27197 7.45342 3.27197C7.82675 3.27197 8.20008 3.35197 8.53342 3.51197C8.88008 3.67197 9.18675 3.91197 9.42675 4.25864L12.5201 8.61864C12.7601 8.95197 12.9334 9.25864 13.0534 9.55197C13.1734 9.83197 13.2401 10.112 13.2401 10.3653C13.2401 10.6853 13.1467 11.0053 12.9601 11.312C12.7867 11.6186 12.5334 11.9386 12.2134 12.2586L11.2001 13.312C11.0534 13.4586 10.9867 13.632 10.9867 13.8453C10.9867 13.952 11.0001 14.0453 11.0267 14.152C11.0667 14.2586 11.1067 14.3386 11.1334 14.4186C11.3734 14.8586 11.7867 15.432 12.3734 16.1253C12.9734 16.8186 13.6134 17.5253 14.3067 18.232C15.0267 18.9386 15.7201 19.592 16.4267 20.192C17.1201 20.7786 17.6934 21.1786 18.1467 21.4186C18.2134 21.4453 18.2934 21.4853 18.3867 21.5253C18.4934 21.5653 18.6001 21.5786 18.7201 21.5786C18.9467 21.5786 19.1201 21.4986 19.2667 21.352L20.2801 20.352C20.6134 20.0186 20.9334 19.7653 21.2401 19.6053C21.5467 19.4186 21.8534 19.3253 22.1867 19.3253C22.4401 19.3253 22.7067 19.3786 23.0001 19.4986C23.2934 19.6186 23.6001 19.792 23.9334 20.0186L28.3467 23.152C28.6934 23.392 28.9334 23.672 29.0801 24.0053C29.2134 24.3386 29.2934 24.672 29.2934 25.0453Z" stroke="#292D32" stroke-width="2.5" stroke-miterlimit="10"/>
</svg>
