<svg width="32" height="33" viewBox="0 0 32 33" fill="none" xmlns="http://www.w3.org/2000/svg">
<path d="M18 1.60547C10.28 1.60547 4 7.43747 4.012 14.7575C4.122 15.4815 4.192 17.6055 3.212 18.7435C2.714 19.3235 1.99 19.6055 1 19.6055C0.448 19.6055 0 20.0535 0 20.6055C0 23.6275 2.506 25.6935 7.454 26.7435C7.524 26.7575 7.592 26.7655 7.662 26.7655C8.124 26.7655 8.538 26.4435 8.638 25.9735C8.752 25.4335 8.408 24.9035 7.868 24.7875C4.602 24.0935 2.686 22.9895 2.154 21.5015C3.208 21.3035 4.074 20.8155 4.736 20.0415C6.51 17.9655 6.012 14.6055 6 14.6055C6 8.53947 11.382 3.60547 18 3.60547C24.618 3.60547 30 8.53947 30 14.6055C30 18.7375 27.498 22.4915 23.472 24.4015C22.972 24.6375 22.76 25.2355 22.996 25.7335C23.234 26.2355 23.836 26.4375 24.328 26.2095C29.06 23.9655 32 19.5195 32 14.6055C32 7.43747 25.718 1.60547 18 1.60547Z" fill="#2D343A"/>
<path d="M20.194 26.4433C20.138 25.8933 19.604 25.4913 19.098 25.5513C18.732 25.5873 18.366 25.6053 18 25.6053C15.954 25.6053 14.314 25.5493 12.84 25.4293C12.298 25.3993 11.808 25.7953 11.762 26.3433C11.718 26.8933 12.128 27.3773 12.678 27.4213C14.206 27.5473 15.898 27.6053 18 27.6053C18.436 27.6053 18.87 27.5833 19.302 27.5393C19.852 27.4833 20.25 26.9913 20.194 26.4433Z" fill="#2D343A"/>
<path d="M22 23.6055C19.794 23.6055 18 25.3995 18 27.6055C18 29.8115 19.794 31.6055 22 31.6055C24.206 31.6055 26 29.8115 26 27.6055C26 25.3995 24.206 23.6055 22 23.6055ZM22 29.6055C20.896 29.6055 20 28.7095 20 27.6055C20 26.5015 20.896 25.6055 22 25.6055C23.104 25.6055 24 26.5015 24 27.6055C24 28.7095 23.104 29.6055 22 29.6055Z" fill="#2D343A"/>
<path d="M10 23.6055C7.794 23.6055 6 25.3995 6 27.6055C6 29.8115 7.794 31.6055 10 31.6055C12.206 31.6055 14 29.8115 14 27.6055C14 25.3995 12.206 23.6055 10 23.6055ZM10 29.6055C8.898 29.6055 8 28.7095 8 27.6055C8 26.5015 8.898 25.6055 10 25.6055C11.102 25.6055 12 26.5015 12 27.6055C12 28.7095 11.102 29.6055 10 29.6055Z" fill="#2D343A"/>
<path d="M14.04 10.6055H14.02C13.468 10.6055 13.03 11.0535 13.03 11.6055C13.03 12.1575 13.488 12.6055 14.04 12.6055C14.592 12.6055 15.04 12.1575 15.04 11.6055C15.04 11.0535 14.592 10.6055 14.04 10.6055Z" fill="#2D343A"/>
<path d="M22.04 10.6055H22.02C21.468 10.6055 21.03 11.0535 21.03 11.6055C21.03 12.1575 21.49 12.6055 22.04 12.6055C22.592 12.6055 23.04 12.1575 23.04 11.6055C23.04 11.0535 22.592 10.6055 22.04 10.6055Z" fill="#2D343A"/>
<path d="M23.22 15.6295C22.678 15.5135 22.148 15.8475 22.024 16.3875C21.598 18.2815 19.944 19.6055 18 19.6055C16.056 19.6055 14.402 18.2815 13.976 16.3875C13.854 15.8475 13.32 15.5075 12.78 15.6315C12.242 15.7515 11.904 16.2875 12.024 16.8235C12.658 19.6415 15.116 21.6055 18 21.6055C20.886 21.6055 23.344 19.6395 23.978 16.8255C24.098 16.2855 23.76 15.7515 23.22 15.6295Z" fill="#2D343A"/>
</svg>
