<svg width="40" height="40" viewBox="0 0 40 40" fill="none" xmlns="http://www.w3.org/2000/svg">
<g clip-path="url(#clip0_11_339)">
<path d="M12.1109 11.5064V10.3089C12.1109 8.92177 11.1734 7.74943 9.89881 7.39216C10.1706 6.99818 10.3299 6.52099 10.3299 6.00724C10.3299 4.65911 9.23311 3.56232 7.88491 3.56232C6.5367 3.56232 5.43983 4.65911 5.43983 6.00724C5.43983 6.52099 5.59913 6.99825 5.87092 7.39216C4.59631 7.74943 3.65881 8.92177 3.65881 10.3089V11.5064C3.65881 11.8301 3.92116 12.0923 4.24475 12.0923H11.525C11.8486 12.0923 12.1109 11.8301 12.1109 11.5064ZM7.88483 4.73419C8.58686 4.73419 9.15795 5.30529 9.15795 6.00724C9.15795 6.70919 8.58686 7.28036 7.88483 7.28036C7.1828 7.28036 6.6117 6.70919 6.6117 6.00724C6.6117 5.30529 7.1828 4.73419 7.88483 4.73419ZM10.939 10.9204H4.83069C4.72225 9.75818 5.29295 8.45216 6.68741 8.45216H9.08233C10.4767 8.45216 11.0475 9.75825 10.939 10.9204Z" fill="#2D343A"/>
<path d="M27.8892 10.3089V11.5064C27.8892 11.8301 28.1515 12.0924 28.4751 12.0924H35.7553C36.0789 12.0924 36.3413 11.8301 36.3413 11.5064V10.3089C36.3413 8.92183 35.4038 7.74949 34.1292 7.39222C34.401 6.99824 34.5603 6.52105 34.5603 6.0073C34.5603 4.65917 33.4635 3.56238 32.1153 3.56238C30.7671 3.56238 29.6703 4.65917 29.6703 6.0073C29.6703 6.52105 29.8296 6.99832 30.1013 7.39222C28.8267 7.74949 27.8892 8.92183 27.8892 10.3089ZM32.1153 4.73425C32.8173 4.73425 33.3884 5.30535 33.3884 6.0073C33.3884 6.70925 32.8173 7.28043 32.1153 7.28043C31.4132 7.28043 30.8421 6.70925 30.8421 6.0073C30.8421 5.30535 31.4132 4.73425 32.1153 4.73425ZM30.9178 8.45222H33.3127C34.7071 8.45222 35.1694 9.49222 35.1694 10.9205H29.061C29.0725 9.33597 29.7048 8.45222 30.9178 8.45222Z" fill="#2D343A"/>
<path d="M3.65881 34.5764V35.7738C3.65881 36.0975 3.92116 36.3598 4.24475 36.3598H11.525C11.8486 36.3598 12.1109 36.0975 12.1109 35.7738C12.3225 34.1045 11.686 32.1606 9.89881 31.6597C10.1706 31.2657 10.3299 30.7885 10.3299 30.2748C10.3299 28.9266 9.23311 27.8298 7.88491 27.8298C6.5367 27.8298 5.43991 28.9266 5.43991 30.2748C5.43991 30.7885 5.5992 31.2658 5.871 31.6597C4.59631 32.017 3.65881 33.1893 3.65881 34.5764ZM7.88483 29.0016C8.58686 29.0016 9.15795 29.5728 9.15795 30.2748C9.15795 30.9767 8.58686 31.5479 7.88483 31.5479C7.1828 31.5479 6.6117 30.9767 6.6117 30.2748C6.6117 29.5728 7.1828 29.0016 7.88483 29.0016ZM6.68741 32.7198H9.08233C10.4767 32.7198 11.0475 34.0257 10.939 35.188H4.83069C4.83069 33.9538 5.43952 32.7198 6.68741 32.7198Z" fill="#2D343A"/>
<path d="M32.7011 24.2892V22.4269C32.7011 22.1032 32.4388 21.8409 32.1152 21.8409H27.8559C27.8628 21.6803 27.8662 18.1593 27.8662 18.1593H32.1338C32.493 18.1251 32.6883 17.9284 32.7197 17.5688L32.7055 15.711C36.269 15.4467 39.2298 12.8092 39.8607 9.24519C39.9171 8.92652 39.7045 8.62246 39.3859 8.56613C39.0671 8.50925 38.7631 8.7223 38.7068 9.04089C38.1416 12.2338 35.3781 14.5528 32.1322 14.561C32.1266 14.5608 32.121 14.5608 32.1154 14.5608H32.1108C32.1066 14.5608 32.1026 14.5609 32.0984 14.561C28.415 14.5521 25.4211 11.5524 25.4211 7.86652C25.4211 4.17509 28.4239 1.17196 32.1149 1.17196C35.3684 1.17196 38.1407 3.49353 38.7067 6.69198C38.7631 7.01065 39.067 7.22354 39.3858 7.1669C39.7045 7.11042 39.917 6.80643 39.8606 6.48784C39.1954 2.72853 35.9378 0 32.1149 0C27.7778 0 24.2492 3.52892 24.2492 7.86644C24.2492 9.84816 24.9858 11.6611 26.1995 13.0458L23.9651 11.5562C23.8688 11.4921 23.7557 11.4578 23.6401 11.4578H16.3598C16.2442 11.4578 16.1311 11.492 16.0348 11.5562L13.8001 13.0461C15.0142 11.6613 15.7509 9.84824 15.7509 7.86628C15.7509 3.52884 12.2222 7.81253e-05 7.88472 7.81253e-05C3.54728 7.81253e-05 0.0186768 3.52892 0.0186768 7.86628C0.0186768 12.0067 3.23408 15.4101 7.29894 15.7109V17.5733C7.29894 17.8969 7.56128 18.1592 7.88488 18.1592H12.1339C12.1339 18.1592 12.1374 21.6802 12.1442 21.8409H7.86629C7.50707 21.875 7.31175 22.0718 7.28035 22.4313L7.29456 24.2892C3.23181 24.5922 0.0187549 27.9947 0.0187549 32.1336C0.0187549 35.957 2.74697 39.2143 6.50589 39.8787C6.82433 39.9351 7.12847 39.7223 7.18488 39.4037C7.24121 39.085 7.02855 38.7809 6.7098 38.7247C3.51174 38.1595 1.19063 35.3876 1.19063 32.1337C1.19063 28.4481 4.18455 25.4485 7.86816 25.4392C7.87371 25.4394 7.87925 25.4395 7.8848 25.4395H7.88941C7.89355 25.4395 7.89761 25.4393 7.90175 25.4392C11.5852 25.4481 14.579 28.4478 14.579 32.1337C14.579 35.3872 12.2579 38.1594 9.05973 38.7256C8.74105 38.782 8.52848 39.086 8.58488 39.4047C8.74559 39.7714 8.97192 39.9297 9.26395 39.8795C13.0227 39.2141 15.7509 35.9565 15.7509 32.1336C15.7509 30.9956 15.508 29.9132 15.0714 28.9357C16.3338 30.3172 17.9502 31.3921 19.8149 32.0136C19.9384 32.0537 20.062 32.0537 20.1855 32.0136C22.0501 31.3921 23.6664 30.3173 24.9289 28.9359C24.4921 29.9135 24.2492 30.9958 24.2492 32.1338C24.2492 36.4712 27.778 40 32.1154 40C36.4529 40 39.9816 36.4712 39.9816 32.1338C39.9813 27.9934 36.7659 24.5899 32.7011 24.2892ZM27.8662 16.9874V14.484C28.939 15.1753 30.19 15.613 31.5336 15.7116L31.5433 16.9874H27.8662ZM1.19056 7.86628C1.19056 4.17502 4.19361 1.17196 7.88488 1.17196C11.5761 1.17196 14.5792 4.17494 14.5792 7.86628C14.5792 11.5576 11.5761 14.5607 7.88488 14.5607C4.19361 14.5607 1.19056 11.5576 1.19056 7.86628ZM8.47074 16.9874V15.711C9.8127 15.6117 11.0622 15.1742 12.1338 14.4837V16.9875L8.47074 16.9874ZM8.46644 24.2886L8.45668 23.0128H12.2554C12.4386 24.2502 12.8246 25.4309 13.384 26.5143C12.0947 25.252 10.374 24.4286 8.46644 24.2886ZM20 30.8382C16.0416 29.4337 13.3057 25.5524 13.3057 21.3571V14.7842L16.5373 12.6298H23.4627L26.6942 14.7842V21.3571C26.6943 25.5514 23.9583 29.4337 20 30.8382ZM27.7445 23.0128H31.5292V24.2892C29.6233 24.4303 27.9042 25.2534 26.6157 26.5147C27.1753 25.4312 27.5613 24.2504 27.7445 23.0128ZM32.1152 38.8281C28.4239 38.8281 25.4209 35.8251 25.4209 32.1338C25.4209 28.4425 28.4239 25.4394 32.1152 25.4394C35.8065 25.4394 38.8095 28.4425 38.8095 32.1338C38.8095 35.8251 35.8064 38.8281 32.1152 38.8281Z" fill="#2D343A"/>
<path d="M34.1291 31.6597C34.4009 31.2657 34.5602 30.7885 34.5602 30.2748C34.5602 28.9266 33.4634 27.8298 32.1152 27.8298C30.767 27.8298 29.6702 28.9266 29.6702 30.2748C29.6702 30.7885 29.8295 31.2658 30.1013 31.6597C28.3239 32.1579 27.68 34.1031 27.8892 35.7738C27.8892 36.0975 28.1515 36.3598 28.4751 36.3598H35.7553C36.0789 36.3598 36.3413 36.0975 36.3413 35.7738C36.5528 34.1045 35.9163 32.1606 34.1291 31.6597ZM32.1152 29.0016C32.8172 29.0016 33.3883 29.5728 33.3883 30.2748C33.3883 30.9767 32.8172 31.5479 32.1152 31.5479C31.4132 31.5479 30.8421 30.9767 30.8421 30.2748C30.8421 29.5728 31.4132 29.0016 32.1152 29.0016ZM35.1693 35.1879H29.061C29.0725 33.9538 29.5233 32.7197 30.9177 32.7197H33.3126C34.707 32.7198 35.1822 33.9538 35.1693 35.1879Z" fill="#2D343A"/>
<path d="M25.1602 15.2914L23.225 14.0016C23.1288 13.9375 23.0157 13.9032 22.9 13.9032H21.2766C20.953 13.9032 20.6907 14.1655 20.6907 14.4891C20.6907 14.8128 20.953 15.0751 21.2766 15.0751H22.7227L24.2493 16.0926V21.3571C24.2493 24.2624 22.59 26.9152 20.0001 28.1886C17.4102 26.9151 15.7509 24.2624 15.7509 21.3571V16.0926L17.2775 15.0751H18.7236C19.0472 15.0751 19.3096 14.8128 19.3096 14.4891C19.3096 14.1655 19.0472 13.9032 18.7236 13.9032H17.1002C16.9846 13.9032 16.8714 13.9374 16.7752 14.0016L14.84 15.2914C14.677 15.4002 14.5791 15.583 14.5791 15.779V21.3571C14.5791 24.812 16.6129 27.9574 19.7602 29.3705C19.9202 29.4391 20.0802 29.4391 20.2402 29.3705C23.3876 27.9574 25.4213 24.8119 25.4213 21.3571V15.779C25.4211 15.583 25.3232 15.4001 25.1602 15.2914Z" fill="#2D343A"/>
<path d="M17.1589 21.0653C16.9301 21.2942 16.9301 21.6651 17.1589 21.894L19.0713 23.8064C19.3192 24.054 19.7328 24.0321 19.9502 23.7492L22.8913 19.9243C23.0885 19.6679 23.0405 19.3 22.7839 19.1027C22.5273 18.9055 22.1594 18.9535 21.9623 19.2101L19.4281 22.5058L17.9876 21.0653C17.7588 20.8365 17.3878 20.8365 17.1589 21.0653Z" fill="#2D343A"/>
</g>
<defs>
<clipPath id="clip0_11_339">
<rect width="40" height="40" fill="white"/>
</clipPath>
</defs>
</svg>
