<svg width="40" height="40" viewBox="0 0 40 40" fill="none" xmlns="http://www.w3.org/2000/svg">
<g clip-path="url(#clip0_11_396)">
<path d="M10 40H23.1269C23.9606 40 24.6606 39.4494 24.9038 38.695C26.3744 38.4425 27.5 37.1656 27.5 35.6237C27.5 34.1156 26.4256 32.8531 25.0019 32.5625V31.3687L27.2887 25.6494C29.1625 25.8556 30.625 27.4469 30.625 29.375C30.625 29.3906 30.6331 29.4044 30.6344 29.42C30.6331 29.4362 30.625 29.4494 30.625 29.4656V39.375C30.625 39.7206 30.9044 40 31.25 40C31.5956 40 31.875 39.7206 31.875 39.375V29.4656C31.875 29.45 31.8669 29.4363 31.8656 29.4206C31.8669 29.4044 31.875 29.3906 31.875 29.375C31.875 26.6181 29.6319 24.375 26.875 24.375H26.8644C26.8631 24.375 26.8619 24.375 26.8612 24.375H24.375V22.6606C27.345 21.0856 29.3744 17.9656 29.375 14.3763V7.50125C29.375 5.30125 27.7419 3.48125 25.625 3.17625V0.625C25.625 0.28 25.3456 0 25 0H18.75C14.27 0 10.625 3.645 10.625 8.125V14.3606C10.625 14.3631 10.6263 14.365 10.6263 14.3681C10.6263 14.3713 10.625 14.3725 10.625 14.375C10.625 17.9644 12.655 21.0856 15.625 22.66V24.375H13.125C10.3681 24.375 8.125 26.6181 8.125 29.375C8.125 29.3906 8.13313 29.4044 8.13438 29.42C8.13313 29.4362 8.125 29.4494 8.125 29.4656V31.2494V35.625V38.125C8.125 39.1587 8.96625 40 10 40ZM9.375 38.125V36.3138C10.5975 36.5625 11.5625 37.5275 11.8113 38.75H10C9.655 38.75 9.375 38.47 9.375 38.125ZM23.1269 38.75H13.075C12.8 36.8381 11.2869 35.3256 9.375 35.05V31.8738H23.7519V33.1144C23.7519 33.1175 23.75 33.1206 23.75 33.1237C23.75 33.1269 23.7519 33.13 23.7519 33.1331V38.115C23.7519 38.1181 23.75 38.1213 23.75 38.1244C23.75 38.1263 23.7512 38.1275 23.7512 38.1294C23.7487 38.4719 23.4706 38.75 23.1269 38.75ZM25.9519 25.625L23.9531 30.6238H22.7969L24.7962 25.625H25.9519ZM26.25 35.6237C26.25 36.4369 25.7269 37.1237 25.0019 37.3825V33.8644C25.7269 34.1237 26.25 34.8106 26.25 35.6237ZM18.75 1.25H24.375V3.75C24.375 4.095 24.6544 4.375 25 4.375C26.7231 4.375 28.125 5.77688 28.125 7.5V9.74063L26.6919 8.3075C26.69 8.30562 26.6869 8.305 26.685 8.30313C26.6469 8.26625 26.6006 8.24312 26.5563 8.2175C26.53 8.2025 26.5075 8.18 26.48 8.16938C26.4531 8.15875 26.4238 8.15938 26.3956 8.15312C26.3456 8.14062 26.2962 8.12563 26.2456 8.12563C26.225 8.12563 26.205 8.13562 26.1838 8.1375C26.1231 8.14375 26.0637 8.15125 26.0069 8.17562C26.0044 8.17625 26.0019 8.17625 25.9994 8.17688C25.9725 8.19 23.225 9.375 20 9.375C16.7869 9.375 14.0275 8.18937 14 8.17688C13.9975 8.17562 13.995 8.17625 13.9925 8.17562C13.9413 8.15375 13.8875 8.14875 13.8331 8.14125C13.8062 8.1375 13.7794 8.12563 13.7519 8.12563C13.7306 8.12563 13.71 8.135 13.6881 8.1375C13.6294 8.14375 13.5706 8.14937 13.5169 8.17062C13.5056 8.175 13.4969 8.185 13.4856 8.19062C13.4231 8.22 13.3637 8.25562 13.3138 8.30437C13.3119 8.30562 13.31 8.30625 13.3081 8.30813L11.875 9.7375V8.125C11.875 4.33437 14.9594 1.25 18.75 1.25ZM11.875 14.375C11.875 14.3725 11.8737 14.3706 11.8737 14.3675C11.8737 14.3644 11.875 14.3631 11.875 14.3606V11.5025L13.9 9.48313C14.8206 9.83125 17.2206 10.625 20 10.625C22.7788 10.625 25.1781 9.83125 26.0994 9.48313L28.125 11.5094V14.375C28.125 18.855 24.48 22.5 20 22.5C15.52 22.5 11.875 18.855 11.875 14.375ZM20 23.75C21.0969 23.75 22.1462 23.5513 23.125 23.2031V24.6656L21.7825 25.5606L20.1981 25.0325C20.175 25.0244 20.1525 25.0287 20.13 25.0237C20.0869 25.0144 20.045 25.0081 20.0006 25.0081C19.9562 25.0081 19.9138 25.015 19.8713 25.0237C19.8488 25.0287 19.8256 25.025 19.8031 25.0325L18.2188 25.5606L16.875 24.6656V23.2031C17.8538 23.5513 18.9031 23.75 20 23.75ZM13.125 25.625H16.0606L17.7781 26.77C17.8081 26.79 17.8413 26.8006 17.8725 26.8144C17.895 26.8244 17.9156 26.8381 17.9394 26.8456C18.0006 26.8644 18.0625 26.875 18.1244 26.875H18.1269C18.1875 26.8744 18.2456 26.8625 18.3037 26.8456C18.31 26.8438 18.3169 26.8444 18.3225 26.8425L20 26.2838L21.6775 26.8431C21.6837 26.845 21.6906 26.8444 21.6969 26.8462C21.7544 26.8631 21.8138 26.875 21.8731 26.8756H21.875C21.9369 26.8756 21.9994 26.865 22.06 26.8462C22.0838 26.8387 22.1044 26.825 22.1275 26.8144C22.1594 26.8006 22.1919 26.79 22.2213 26.7706L23.2713 26.0706L21.4506 30.6244H9.375V29.4656C9.375 29.45 9.36687 29.4363 9.36562 29.4206C9.36687 29.4044 9.375 29.3906 9.375 29.375C9.375 27.3069 11.0569 25.625 13.125 25.625Z" fill="white"/>
</g>
<defs>
<clipPath id="clip0_11_396">
<rect width="40" height="40" fill="white"/>
</clipPath>
</defs>
</svg>
