<svg width="40" height="40" viewBox="0 0 40 40" fill="none" xmlns="http://www.w3.org/2000/svg">
<path d="M29.0424 10.9368C31.6269 10.9368 33.7296 8.83408 33.7296 6.24957C33.7296 3.66506 31.6269 1.56239 29.0424 1.56239C26.4579 1.56239 24.3552 3.66506 24.3552 6.24957C24.3552 8.83408 26.4579 10.9368 29.0424 10.9368ZM29.0424 2.73419C30.9808 2.73419 32.5578 4.31119 32.5578 6.24957C32.5578 8.18796 30.9808 9.76496 29.0424 9.76496C27.104 9.76496 25.527 8.18796 25.527 6.24957C25.527 4.31119 27.1039 2.73419 29.0424 2.73419Z" fill="white"/>
<path d="M29.0426 8.59316C30.3348 8.59316 31.3862 7.54183 31.3862 6.24957C31.3862 4.95732 30.3348 3.90598 29.0426 3.90598C27.7503 3.90598 26.699 4.95732 26.699 6.24957C26.699 7.54183 27.7503 8.59316 29.0426 8.59316ZM29.0426 5.07778C29.6887 5.07778 30.2144 5.60345 30.2144 6.24957C30.2144 6.8957 29.6887 7.42137 29.0426 7.42137C28.3964 7.42137 27.8708 6.8957 27.8708 6.24957C27.8708 5.60345 28.3964 5.07778 29.0426 5.07778Z" fill="white"/>
<path d="M13.1059 28.6726C10.629 28.6726 8.61401 30.6877 8.61401 33.1645C8.61401 35.6414 10.629 37.6564 13.1059 37.6564C15.5828 37.6564 17.5978 35.6414 17.5978 33.1645C17.5978 30.6877 15.5828 28.6726 13.1059 28.6726ZM13.1059 36.4846C11.2752 36.4846 9.78581 34.9953 9.78581 33.1645C9.78581 31.3338 11.2752 29.8444 13.1059 29.8444C14.9366 29.8444 16.426 31.3338 16.426 33.1645C16.426 34.9953 14.9366 36.4846 13.1059 36.4846Z" fill="white"/>
<path d="M31.2689 34.2414V26.5244C31.2689 24.909 29.9548 23.5949 28.3394 23.5949H25.4099V20.6654C25.4099 19.6962 24.6214 18.9077 23.6522 18.9077H23.0663V15.6239H28.3394C29.3085 15.6239 30.0971 14.8354 30.0971 13.8662C30.0971 12.8971 29.3085 12.1085 28.3394 12.1085H27.1676C26.8439 12.1085 26.5817 12.3708 26.5817 12.6944C26.5817 13.0181 26.8439 13.2803 27.1676 13.2803H28.3394C28.6625 13.2803 28.9253 13.5431 28.9253 13.8662C28.9253 14.1893 28.6625 14.4521 28.3394 14.4521H22.9844C22.8066 13.8259 22.3517 13.3152 21.7607 13.0622C22.6311 12.3095 23.1835 11.1985 23.1835 9.96026V3.51538C23.1835 1.577 21.6065 0 19.6681 0C18.5625 0 17.5221 0.526917 16.8625 1.3985C16.8213 1.39561 16.7799 1.39405 16.7386 1.39405C15.7694 1.39405 14.9809 2.18259 14.9809 3.15174V9.96026C14.9809 11.1647 15.503 12.2495 16.3326 13.0005C15.48 13.2856 14.8637 14.0909 14.8637 15.038V18.9077H13.6919V17.8547C13.6919 15.8945 12.7183 14.0753 11.0874 12.9882C10.8181 12.8087 10.4543 12.8814 10.2748 13.1507C10.0954 13.4199 10.1681 13.7837 10.4374 13.9631C11.7415 14.8325 12.5201 16.2872 12.5201 17.8546V26.3544C9.0243 26.6526 6.27051 29.5928 6.27051 33.1645C6.27051 36.9336 9.33686 40 13.106 40C16.8751 40 19.9414 36.9336 19.9414 33.1645C19.9414 32.6964 19.894 32.2393 19.804 31.7974H24.2381V34.2C22.9026 34.4722 21.8945 35.6558 21.8945 37.0705C21.8945 38.6859 23.2086 40 24.824 40C26.2388 40 27.4223 38.9919 27.6945 37.6564H30.683C31.6521 37.6564 32.4407 36.8679 32.4407 35.8987C32.4407 35.1349 31.9509 34.4833 31.2689 34.2414ZM17.8846 28.2821C16.7822 27.2029 15.3174 26.4931 13.6919 26.3544V22.4231H24.238V28.2821H17.8846ZM16.0355 21.2513V20.0795H21.8944V21.2513H16.0355ZM23.6522 20.0795C23.9753 20.0795 24.2381 20.3423 24.2381 20.6654V21.2513H23.0663V20.0795H23.6522ZM16.1527 7.61667C16.1527 6.00131 17.4669 4.68718 19.0822 4.68718C20.6975 4.68718 22.0117 6.00131 22.0117 7.61667V7.81197H20.5955C20.2526 7.32762 19.6936 7.03077 19.0822 7.03077C18.4708 7.03077 17.9118 7.32762 17.569 7.81197H16.1527V7.61667ZM16.1527 3.15182C16.1527 2.82871 16.4155 2.56592 16.7386 2.56592C16.8039 2.56592 16.8699 2.57771 16.9352 2.60099C17.2014 2.6963 17.4975 2.58764 17.6393 2.34296C18.0579 1.62059 18.8353 1.17179 19.6681 1.17179C20.9604 1.17179 22.0117 2.22313 22.0117 3.51538V4.7503C21.2667 3.98902 20.229 3.51538 19.0822 3.51538C17.9355 3.51538 16.8978 3.98902 16.1527 4.7503V3.15182ZM16.1527 9.96026V8.98376H17.9104C18.1469 8.98376 18.3602 8.84166 18.4512 8.62339C18.5578 8.36779 18.8055 8.20256 19.0823 8.20256C19.3591 8.20256 19.6067 8.36771 19.7134 8.62339C19.8044 8.84166 20.0177 8.98376 20.2542 8.98376H22.0118V9.96026C22.0118 11.5756 20.6976 12.8897 19.0823 12.8897C17.4669 12.8897 16.1527 11.5756 16.1527 9.96026ZM16.0355 15.038C16.0355 14.4996 16.4735 14.0615 17.012 14.0615H20.9179C21.4564 14.0615 21.8944 14.4996 21.8944 15.038V18.9077H16.0355V15.038ZM14.8637 20.0795V21.2513H13.6919V20.0795H14.8637ZM13.106 38.8282C9.98299 38.8282 7.4423 36.2875 7.4423 33.1645C7.4423 30.0415 9.98299 27.5009 13.106 27.5009C16.229 27.5009 18.7697 30.0415 18.7697 33.1645C18.7697 36.2875 16.229 38.8282 13.106 38.8282ZM19.4523 30.6256C19.2869 30.2138 19.0827 29.8217 18.8439 29.4538H24.2381V30.6256H19.4523ZM24.824 38.8282C23.8549 38.8282 23.0663 38.0397 23.0663 37.0705C23.0663 36.1014 23.8549 35.3128 24.824 35.3128C25.7932 35.3128 26.5817 36.1014 26.5817 37.0705C26.5817 38.0397 25.7932 38.8282 24.824 38.8282ZM30.683 36.4846H27.6945C27.4609 35.3384 26.5561 34.4336 25.4099 34.2V24.7667H28.3394C29.3085 24.7667 30.0971 25.5552 30.0971 26.5244V34.7269C30.0971 35.0506 30.3593 35.3128 30.683 35.3128C31.0061 35.3128 31.2689 35.5756 31.2689 35.8987C31.2689 36.2218 31.0061 36.4846 30.683 36.4846Z" fill="white"/>
</svg>
