<svg width="56" height="56" viewBox="0 0 56 56" fill="none" xmlns="http://www.w3.org/2000/svg">
<path d="M35.4043 31.5H26.6543C26.1704 31.5 25.7793 31.1089 25.7793 30.625C25.7793 30.1411 26.1704 29.75 26.6543 29.75H35.4043C35.8882 29.75 36.2793 30.1411 36.2793 30.625C36.2793 31.1089 35.8882 31.5 35.4043 31.5Z" fill="#2D343A"/>
<path d="M38.9043 40.25H23.6382C23.1543 40.25 22.7632 39.8589 22.7632 39.375C22.7632 38.8911 23.1543 38.5 23.6382 38.5H38.9043C39.3882 38.5 39.7793 38.8911 39.7793 39.375C39.7793 39.8589 39.3882 40.25 38.9043 40.25Z" fill="#2D343A"/>
<path d="M38.9043 35.875H23.8779C23.3941 35.875 23.0029 35.4839 23.0029 35C23.0029 34.5161 23.3941 34.125 23.8779 34.125H38.9043C39.3882 34.125 39.7793 34.5161 39.7793 35C39.7793 35.4839 39.3882 35.875 38.9043 35.875Z" fill="#2D343A"/>
<path d="M20.8548 46.375C20.7612 46.375 20.6658 46.3601 20.5731 46.3278C20.1154 46.172 19.8704 45.675 20.0271 45.2174C20.0918 45.0266 20.1539 44.8341 20.2152 44.6408C20.3884 44.0983 20.5669 43.5356 20.8277 42.9905C21.0788 42.462 21.3842 41.986 21.6799 41.524C21.8322 41.2851 21.9853 41.0463 22.1288 40.8021C22.6241 39.9551 22.7754 39.2508 22.8962 38.1666C23.0607 36.6818 23.0441 35.3264 22.8411 33.7724C22.6162 32.0635 22.6687 30.4614 22.7221 28.7648L22.7291 28.5758C22.7422 28.1785 22.4097 28.0315 22.3073 27.9965C22.2058 27.9606 21.8541 27.8696 21.6169 28.189C21.3308 28.5775 20.7813 28.6589 20.3937 28.3701C20.0061 28.0823 19.9247 27.5345 20.2126 27.1469C20.8321 26.3104 21.8821 25.9936 22.8839 26.3445C23.8867 26.6928 24.5123 27.5923 24.4782 28.6326L24.4721 28.8216C24.4196 30.4439 24.3714 31.9769 24.5762 33.5449C24.7984 35.245 24.8168 36.7308 24.6357 38.36C24.4948 39.6288 24.2866 40.5799 23.6382 41.6868C23.4824 41.9519 23.3188 42.2091 23.1534 42.4673C22.8752 42.9021 22.6118 43.3143 22.4062 43.7439C22.1979 44.1823 22.0439 44.6635 21.8812 45.1736C21.8164 45.3775 21.7508 45.5814 21.6817 45.7818C21.5592 46.1458 21.2188 46.375 20.8548 46.375Z" fill="#2D343A"/>
<path d="M42.4042 44.625H21.4541C20.9702 44.625 20.5791 44.2339 20.5791 43.75C20.5791 43.2661 20.9702 42.875 21.4541 42.875H42.4042C42.8881 42.875 43.2792 43.2661 43.2792 43.75C43.2792 44.2339 42.8881 44.625 42.4042 44.625Z" fill="#2D343A"/>
<path d="M42.4043 44.625C41.9204 44.625 41.5293 44.2339 41.5293 43.75C41.5293 43.2661 41.9204 42.875 42.4043 42.875C42.8873 42.875 43.2793 42.483 43.2793 42C43.2793 41.5161 43.6704 41.125 44.1543 41.125C44.6382 41.125 45.0293 41.5161 45.0293 42C45.0293 43.4473 43.8515 44.625 42.4043 44.625Z" fill="#2D343A"/>
<path d="M44.1543 42.875C43.6704 42.875 43.2793 42.4839 43.2793 42V12.25C43.2793 11.7661 43.6704 11.375 44.1543 11.375C44.6382 11.375 45.0293 11.7661 45.0293 12.25V42C45.0293 42.4839 44.6382 42.875 44.1543 42.875Z" fill="#2D343A"/>
<path d="M29.2793 27.125C28.7954 27.125 28.4043 26.7339 28.4043 26.25V22.75C28.4043 22.2661 28.7954 21.875 29.2793 21.875C29.7632 21.875 30.1543 22.2661 30.1543 22.75V26.25C30.1543 26.7339 29.7632 27.125 29.2793 27.125Z" fill="#2D343A"/>
<path d="M29.2793 23.625H25.7793C25.2954 23.625 24.9043 23.2339 24.9043 22.75C24.9043 22.2661 25.2954 21.875 25.7793 21.875H29.2793C29.7632 21.875 30.1543 22.2661 30.1543 22.75C30.1543 23.2339 29.7632 23.625 29.2793 23.625Z" fill="#2D343A"/>
<path d="M25.7793 23.625C25.2954 23.625 24.9043 23.2339 24.9043 22.75V19.25C24.9043 18.7661 25.2954 18.375 25.7793 18.375C26.2632 18.375 26.6543 18.7661 26.6543 19.25V22.75C26.6543 23.2339 26.2632 23.625 25.7793 23.625Z" fill="#2D343A"/>
<path d="M29.2793 20.125H25.7793C25.2954 20.125 24.9043 19.7339 24.9043 19.25C24.9043 18.7661 25.2954 18.375 25.7793 18.375H29.2793C29.7632 18.375 30.1543 18.7661 30.1543 19.25C30.1543 19.7339 29.7632 20.125 29.2793 20.125Z" fill="#2D343A"/>
<path d="M29.2793 20.125C28.7954 20.125 28.4043 19.7339 28.4043 19.25V15.75C28.4043 15.2661 28.7954 14.875 29.2793 14.875C29.7632 14.875 30.1543 15.2661 30.1543 15.75V19.25C30.1543 19.7339 29.7632 20.125 29.2793 20.125Z" fill="#2D343A"/>
<path d="M32.7793 27.125H29.2793C28.7954 27.125 28.4043 26.7339 28.4043 26.25C28.4043 25.7661 28.7954 25.375 29.2793 25.375H32.7793C33.2632 25.375 33.6543 25.7661 33.6543 26.25C33.6543 26.7339 33.2632 27.125 32.7793 27.125Z" fill="#2D343A"/>
<path d="M32.7793 27.125C32.2954 27.125 31.9043 26.7339 31.9043 26.25V22.75C31.9043 22.2661 32.2954 21.875 32.7793 21.875C33.2632 21.875 33.6543 22.2661 33.6543 22.75V26.25C33.6543 26.7339 33.2632 27.125 32.7793 27.125Z" fill="#2D343A"/>
<path d="M36.2793 23.625H32.7793C32.2954 23.625 31.9043 23.2339 31.9043 22.75C31.9043 22.2661 32.2954 21.875 32.7793 21.875H36.2793C36.7632 21.875 37.1543 22.2661 37.1543 22.75C37.1543 23.2339 36.7632 23.625 36.2793 23.625Z" fill="#2D343A"/>
<path d="M36.2793 23.625C35.7954 23.625 35.4043 23.2339 35.4043 22.75V19.25C35.4043 18.7661 35.7954 18.375 36.2793 18.375C36.7632 18.375 37.1543 18.7661 37.1543 19.25V22.75C37.1543 23.2339 36.7632 23.625 36.2793 23.625Z" fill="#2D343A"/>
<path d="M36.2793 20.125H32.7793C32.2954 20.125 31.9043 19.7339 31.9043 19.25C31.9043 18.7661 32.2954 18.375 32.7793 18.375H36.2793C36.7632 18.375 37.1543 18.7661 37.1543 19.25C37.1543 19.7339 36.7632 20.125 36.2793 20.125Z" fill="#2D343A"/>
<path d="M32.7793 20.125C32.2954 20.125 31.9043 19.7339 31.9043 19.25V15.75C31.9043 15.2661 32.2954 14.875 32.7793 14.875C33.2632 14.875 33.6543 15.2661 33.6543 15.75V19.25C33.6543 19.7339 33.2632 20.125 32.7793 20.125Z" fill="#2D343A"/>
<path d="M32.7793 16.625H29.2793C28.7954 16.625 28.4043 16.2339 28.4043 15.75C28.4043 15.2661 28.7954 14.875 29.2793 14.875H32.7793C33.2632 14.875 33.6543 15.2661 33.6543 15.75C33.6543 16.2339 33.2632 16.625 32.7793 16.625Z" fill="#2D343A"/>
<path d="M44.1543 13.125C43.6704 13.125 43.2793 12.7339 43.2793 12.25C43.2793 11.767 42.8873 11.375 42.4043 11.375C41.9204 11.375 41.5293 10.9839 41.5293 10.5C41.5293 10.0161 41.9204 9.625 42.4043 9.625C43.8515 9.625 45.0293 10.8027 45.0293 12.25C45.0293 12.7339 44.6382 13.125 44.1543 13.125Z" fill="#2D343A"/>
<path d="M42.4043 11.375H19.6543C19.1704 11.375 18.7793 10.9839 18.7793 10.5C18.7793 10.0161 19.1704 9.625 19.6543 9.625H42.4043C42.8882 9.625 43.2793 10.0161 43.2793 10.5C43.2793 10.9839 42.8882 11.375 42.4043 11.375Z" fill="#2D343A"/>
<path d="M17.9043 13.125C17.4204 13.125 17.0293 12.7339 17.0293 12.25C17.0293 10.8027 18.207 9.625 19.6543 9.625C20.1382 9.625 20.5293 10.0161 20.5293 10.5C20.5293 10.9839 20.1382 11.375 19.6543 11.375C19.1713 11.375 18.7793 11.767 18.7793 12.25C18.7793 12.7339 18.3882 13.125 17.9043 13.125Z" fill="#2D343A"/>
<path d="M17.9043 36.3239C17.4204 36.3239 17.0293 35.9328 17.0293 35.4489V12.25C17.0293 11.7661 17.4204 11.375 17.9043 11.375C18.3882 11.375 18.7793 11.7661 18.7793 12.25V35.4489C18.7793 35.9319 18.3882 36.3239 17.9043 36.3239Z" fill="#2D343A"/>
<path d="M13.5634 46.375C13.1399 46.375 12.768 46.067 12.6997 45.6356L11.0757 35.2879C11.0014 34.8101 11.3277 34.3621 11.8046 34.2869C12.2832 34.216 12.7295 34.538 12.8056 35.0157L14.4296 45.3635C14.504 45.8412 14.1785 46.2892 13.7007 46.3645C13.6535 46.3715 13.6089 46.375 13.5634 46.375Z" fill="#2D343A"/>
<path d="M20.8547 46.375H13.5642C13.0803 46.375 12.6892 45.9839 12.6892 45.5C12.6892 45.0161 13.0803 44.625 13.5642 44.625H20.8547C21.3386 44.625 21.7297 45.0161 21.7297 45.5C21.7297 45.9839 21.3386 46.375 20.8547 46.375Z" fill="#2D343A"/>
<path d="M18.9069 35.4646C18.8019 35.4646 18.696 35.4462 18.5928 35.4069C18.1413 35.2327 17.9173 34.727 18.0905 34.2755C18.3977 33.4801 18.542 32.5885 18.6943 31.6444C18.9445 30.1017 19.2027 28.5066 20.2098 27.1469C20.4985 26.7592 21.0454 26.6779 21.4339 26.9649C21.8215 27.2527 21.9029 27.8005 21.6159 28.189C20.8617 29.2066 20.6482 30.5261 20.4215 31.9244C20.2605 32.9149 20.0952 33.9386 19.7233 34.9037C19.5903 35.252 19.2587 35.4646 18.9069 35.4646Z" fill="#2D343A"/>
<path d="M11.9394 36.0273C11.5159 36.0273 11.144 35.7193 11.0758 35.2879C10.724 33.0444 11.256 30.7895 12.5738 28.9415C12.8546 28.5478 13.4015 28.4576 13.7944 28.7368C14.1881 29.0168 14.28 29.5636 13.9991 29.9574C12.9483 31.4318 12.5239 33.2281 12.8056 35.0166C12.88 35.4944 12.5536 35.9424 12.0768 36.0176C12.0295 36.0237 11.984 36.0273 11.9394 36.0273Z" fill="#2D343A"/>
<path d="M13.285 30.324C13.11 30.324 12.9324 30.2706 12.7784 30.1612C12.3846 29.8812 12.2928 29.3344 12.5736 28.9406L17.1919 22.4586C17.4719 22.064 18.0179 21.973 18.4125 22.2539C18.8071 22.5347 18.8981 23.0807 18.6173 23.4745L13.999 29.9565C13.8275 30.1971 13.558 30.324 13.285 30.324Z" fill="#2D343A"/>
<path d="M17.9034 36.3239C17.5009 36.3239 17.1387 36.0456 17.0494 35.6361C16.9462 35.1636 17.2454 34.6973 17.7171 34.5949C17.8886 34.5573 18.0277 34.4374 18.0916 34.2746C18.2657 33.8231 18.7723 33.6009 19.2238 33.775C19.6744 33.95 19.8984 34.4566 19.7234 34.9073C19.4478 35.6186 18.8371 36.141 18.0916 36.3046C18.0286 36.3169 17.9647 36.3239 17.9034 36.3239Z" fill="#2D343A"/>
</svg>
