<svg width="40" height="40" viewBox="0 0 40 40" fill="none" xmlns="http://www.w3.org/2000/svg">
<path d="M34.392 30.9725C34.288 29.4747 33.5413 27.8365 32.8622 26.4916C32.3262 25.4293 31.8969 24.6382 31.392 23.8836C30.8889 23.1316 30.3156 22.4258 29.4916 21.5342C29.4293 21.4667 29.3316 21.3565 29.2258 21.2373C28.2747 20.1645 26.6916 18.3787 24.592 19.1289L24.5413 19.1511C23.8827 19.4773 23.1271 19.7965 22.3547 20.0151C21.7422 20.1885 21.1182 20.2996 20.5253 20.2996C19.4924 20.2996 18.8391 20.2498 18.2453 20.1005C17.648 19.9502 17.0782 19.6925 16.224 19.2791C15.5591 18.9573 14.7111 19.1289 13.9067 19.464C13.176 19.7689 12.4764 20.2053 12.0231 20.4969C11.2293 21.008 10.6231 21.4862 10.0729 22.0293C9.52533 22.5698 9.04178 23.1645 8.49067 23.9147C7.83911 24.8009 7.17422 26.1502 6.65155 27.5538C6.12889 28.9565 5.74222 30.4213 5.64533 31.5405L5.64355 31.5822C5.64355 32.288 5.89155 32.8996 6.26933 33.3991C6.70844 33.9813 7.32711 34.408 7.92355 34.6471C8.36355 34.824 9.11822 35.0365 9.87733 35.2116C10.616 35.3813 11.3689 35.5173 11.8533 35.5511C14.5911 35.7413 18.2658 35.968 21.9138 35.9333C25.5778 35.8987 29.1991 35.5991 31.7902 34.7298C33.9004 34.0222 34.504 32.5965 34.392 30.9725ZM12.3964 30.4791L11.9067 33.8622H11.9076C11.8862 33.9938 11.8676 34.1422 11.848 34.2916C11.8356 34.3893 11.8231 34.488 11.8089 34.5831C11.3724 34.5413 10.7298 34.4222 10.0898 34.2756C9.37333 34.1111 8.672 33.9147 8.27911 33.7565C7.82844 33.576 7.36267 33.2551 7.03467 32.8205C6.77867 32.4818 6.60889 32.0702 6.60444 31.6018C6.69778 30.5636 7.05867 29.2009 7.54844 27.8889C8.04267 26.5645 8.66222 25.3005 9.264 24.4827C9.78755 23.7707 10.2418 23.2107 10.7449 22.7138C11.2453 22.2196 11.8044 21.7805 12.5413 21.3058C12.8658 21.0969 13.3236 20.8089 13.8151 20.5627L13.0382 25.9751V25.9769C12.9609 26.5333 12.8631 27.1991 12.7662 27.8605C12.6462 28.6853 12.5262 29.5031 12.3964 30.4791ZM12.7671 34.6507C12.776 34.5831 12.792 34.4658 12.7982 34.4125C12.816 34.2773 12.8329 34.1422 12.8551 34.0053L12.8569 33.9982L13.3458 30.6151V30.6098C13.4533 29.8062 13.584 28.9076 13.7164 28.0027C13.8009 27.4222 13.8862 26.84 13.9876 26.1129L14.8427 20.1529C15.2169 20.0507 15.5573 20.0267 15.8036 20.1458C16.2809 20.3769 16.6756 20.5618 17.0418 20.7111C17.0649 20.7813 17.0916 20.8622 17.12 20.9476C17.2124 21.2267 17.3173 21.5449 17.3316 21.5911L19.7182 29.0525H19.7058L19.9049 29.6782L20.3147 30.9662C20.7316 32.2773 21.3191 34.128 21.6142 34.9769C18.4773 34.9947 15.3067 34.8205 12.7671 34.6507ZM22.4649 34.5627L21.0151 30.0053H21.0231C21.9671 29.9876 22.7796 29.9725 23.2764 30.3467C23.7173 30.6791 23.9129 31.2845 23.9129 31.9378C23.9129 32.2969 23.8533 32.6676 23.7422 33.0169C23.632 33.3645 23.4738 33.6853 23.2764 33.9485C23.0524 34.2445 22.7769 34.4676 22.4649 34.5627ZM31.4836 33.8205C29.4116 34.5156 26.6178 34.8311 23.672 34.936C23.8053 34.8125 23.9289 34.6729 24.0427 34.5227C24.3093 34.168 24.5191 33.7485 24.6596 33.3058C24.8 32.864 24.8747 32.3947 24.8747 31.9369C24.8747 31.0045 24.5618 30.1138 23.8516 29.5787C23.0916 29.0062 22.128 29.0249 21.0071 29.0453C20.9173 29.0471 20.8267 29.0489 20.7102 29.0498L18.2453 21.3005C18.2178 21.2142 18.1938 21.1387 18.1724 21.072C18.8089 21.2142 19.4996 21.2622 20.5236 21.2622C21.208 21.2622 21.9191 21.1369 22.6124 20.9405C23.4347 20.7076 24.2338 20.3725 24.9298 20.0293C26.4133 19.5129 27.72 20.9858 28.5058 21.8729C28.5973 21.976 28.6818 22.072 28.7867 22.1849C29.5707 23.0329 30.1156 23.704 30.5938 24.4178C31.0693 25.1289 31.4827 25.8916 32.0036 26.9245C32.64 28.1858 33.3404 29.712 33.432 31.0365C33.5156 32.2356 33.0631 33.2907 31.4836 33.8205Z" fill="white"/>
<path d="M19.944 4.19379C21.3458 4.19379 22.6578 4.58134 23.7769 5.25423L23.7787 5.25245L23.7831 5.25779C24.304 5.57156 24.784 5.94756 25.2115 6.37512C26.56 7.72356 27.3938 9.58579 27.3938 11.6436C27.3938 13.7013 26.56 15.5636 25.2115 16.912C23.8631 18.2605 22.0009 19.0942 19.9431 19.0942C17.8853 19.0942 16.0231 18.2605 14.6747 16.912C13.3262 15.5636 12.4924 13.7013 12.4924 11.6436C12.4924 9.58579 13.3262 7.72356 14.6747 6.37512C16.024 5.02756 17.8871 4.19379 19.944 4.19379ZM20.696 5.20001C20.2462 5.75023 19.7831 6.27201 19.2649 6.77601C19.0302 7.00445 18.7849 7.22668 18.5271 7.44534C18.6409 7.43823 18.7467 7.43201 18.8542 7.42045C19.6178 7.33601 20.4844 7.27734 21.3627 7.22223C21.6071 7.02223 21.9653 6.73334 22.312 6.45245C22.5369 6.27023 22.7573 6.09156 22.9804 5.91023C22.2844 5.54045 21.5138 5.29423 20.696 5.20001ZM16.9155 7.46934C17.5529 7.02845 18.0987 6.57068 18.5955 6.08801C18.8951 5.79645 19.1804 5.49245 19.4578 5.17512C17.8595 5.29334 16.4231 5.99023 15.3564 7.0569C15.224 7.18934 15.0969 7.32801 14.976 7.47201L16.9155 7.46934ZM23.8329 6.45068C23.5422 6.6889 23.2818 6.90045 23.0178 7.11379C23.5227 7.07823 24.0107 7.03823 24.4622 6.98845C24.2649 6.79645 24.0542 6.6169 23.8329 6.45068ZM19.1378 10.912C18.9315 11.0293 18.6791 11.1769 18.4142 11.3307C17.016 12.1458 15.2649 13.1653 13.7449 13.5609C14.0604 14.5813 14.6204 15.4942 15.3573 16.2311C16.5315 17.4053 18.1529 18.1316 19.9449 18.1316C21.7369 18.1316 23.3582 17.4053 24.5324 16.2311C25.7067 15.0569 26.4329 13.4356 26.4329 11.6436C26.4329 11.1573 26.3795 10.6827 26.2773 10.2267C26.0862 10.2329 25.8622 10.2516 25.6418 10.2747C25.3458 10.3049 25.0667 10.3413 24.8684 10.3671C24.4062 10.4285 23.8267 10.4738 23.2471 10.5191C22.6204 10.568 21.9947 10.6178 21.5804 10.6782L21.5582 10.68L19.1378 10.912ZM13.5298 12.624C14.552 12.3547 15.7404 11.7467 16.8338 11.1325L16.6702 11.1485L16.6462 11.1502C16.392 11.1618 16.0987 11.1973 15.8089 11.2329C15.5475 11.2649 15.2898 11.2969 15.0124 11.312C14.8151 11.3236 14.3733 11.3547 13.9964 11.3929C13.7591 11.4169 13.5511 11.4418 13.4604 11.464C13.4587 11.5236 13.4578 11.584 13.4578 11.6436C13.456 11.9769 13.4818 12.3049 13.5298 12.624ZM14.0738 9.54045C13.9378 9.82401 13.848 10.1245 13.8195 10.4462C13.8462 10.4436 13.8738 10.4409 13.9013 10.4373C14.3022 10.3973 14.7582 10.3645 14.9591 10.3529C15.1751 10.3405 15.432 10.3093 15.6915 10.2773C15.9813 10.2418 16.2755 10.2053 16.5955 10.1911L21.4444 9.72801C21.9004 9.66134 22.536 9.61156 23.1715 9.56179C23.7609 9.51556 24.3493 9.46934 24.744 9.4169C24.9582 9.38845 25.2551 9.35023 25.544 9.32001C25.6107 9.3129 25.6773 9.30668 25.7431 9.30045L25.7333 9.27379C25.5271 8.67734 25.5004 8.59912 25.0507 7.90312L24.6035 7.94134V7.94045C23.7467 8.03468 22.7582 8.0969 21.7698 8.15823C20.7902 8.21956 19.8098 8.2809 18.96 8.37512C18.8311 8.38934 18.6978 8.39734 18.5538 8.40534C18.4764 8.40979 18.3938 8.41512 18.2524 8.42579H18.2151L14.8764 8.43023C14.5431 8.77779 14.2631 9.14579 14.0738 9.54045Z" fill="white"/>
</svg>
