<svg width="40" height="40" viewBox="0 0 40 40" fill="none" xmlns="http://www.w3.org/2000/svg">
<path d="M3.33325 11.3858C3.33325 11.9271 3.772 12.3662 4.31367 12.3662H7.502C7.85867 12.3662 8.20325 12.595 8.37992 12.9475L10.0466 16.2879H4.31367C3.772 16.2875 3.33325 16.7266 3.33325 17.2679C3.33325 17.8091 3.772 18.2483 4.31367 18.2483H11.1766C11.1766 18.2483 11.8766 18.3929 12.2828 18.4946L17.5453 19.875C17.8733 19.9562 18.0395 20.2771 18.0395 20.8296V24.6929C18.0395 25.4254 17.802 26.0916 17.5416 26.0916H16.5541C16.5145 23.6925 14.5574 21.7516 12.1495 21.7516C9.74159 21.7516 7.78409 23.6925 7.7445 26.0916H4.31367C3.772 26.0916 3.33325 26.5304 3.33325 27.0721C3.33325 27.6133 3.772 28.0525 4.31367 28.0525H8.17867C8.88908 29.5387 10.3949 30.5754 12.1491 30.5754C13.9033 30.5754 15.4091 29.5387 16.1195 28.0525H17.5412C18.9312 28.0525 19.8899 26.8466 19.9908 25.0179C19.9966 24.9116 20.0487 24.9187 20.0587 25.0041C20.2328 26.5321 21.8778 28.0525 23.4233 28.0525H24.8449C25.5553 29.5387 27.0612 30.5754 28.8153 30.5754C30.5695 30.5754 32.0753 29.5387 32.7857 28.0525H35.6858C36.227 28.0525 36.6662 27.6137 36.6662 27.0721C36.6662 26.5308 36.2274 26.0916 35.6858 26.0916H33.2199C33.1803 23.6925 31.2232 21.7516 28.8153 21.7516C26.4074 21.7516 24.4508 23.6925 24.4112 26.0916H23.4237C22.877 26.0916 21.9608 25.2158 21.9608 24.6929V20.8296C21.9608 20.4562 22.4262 20.0012 22.9312 19.8771L28.6707 18.4983C28.8966 18.4416 29.0095 18.3883 29.3124 18.2483H35.6866C36.2278 18.2483 36.667 17.8096 36.667 17.2679C36.667 16.7266 36.2283 16.2875 35.6866 16.2875H30.9183L32.5845 12.9479C32.7616 12.5946 33.1062 12.3658 33.4628 12.3658H35.6858C36.227 12.3658 36.6662 11.9271 36.6662 11.3854C36.6662 10.8441 36.2274 10.405 35.6858 10.405H33.4628C32.3703 10.405 31.3374 11.0587 30.8303 12.0716L28.8308 16.0796C28.7024 16.3354 28.4653 16.5275 28.2041 16.5929L22.4666 17.9716C21.357 18.245 20.2287 19.1854 20.0645 20.49C20.0516 20.5916 19.9945 20.6004 19.9853 20.49C19.8762 19.2004 19.1437 18.2508 18.0287 17.9754L12.7683 16.595C12.4987 16.5279 12.2616 16.3354 12.1341 16.0808L10.1337 12.0712C9.627 11.0591 8.59409 10.4054 7.50159 10.4054H4.31325C3.772 10.4054 3.33325 10.8441 3.33325 11.3858ZM14.1174 27.6096C13.7533 28.2683 12.9578 28.6141 12.1491 28.6141C10.7978 28.6141 9.69825 27.515 9.69825 26.1633C9.69825 24.8116 10.7978 23.7125 12.1491 23.7125C13.4762 23.7125 14.5537 24.7737 14.5928 26.0916C14.5928 26.0916 14.5308 26.8621 14.1174 27.6096ZM28.8158 23.7125C30.1428 23.7125 31.2203 24.7737 31.2595 26.0916C31.2595 26.0916 31.3458 26.705 30.7841 27.61C30.387 28.2496 29.6245 28.6146 28.8158 28.6146C27.4645 28.6146 26.3649 27.5154 26.3649 26.1637C26.3649 24.8116 27.4645 23.7125 28.8158 23.7125Z" fill="white"/>
<path d="M17.5832 16.3175C17.7748 16.5092 18.0257 16.6046 18.2765 16.6046C18.5273 16.6046 18.7782 16.5088 18.9698 16.3175C19.3528 15.9346 19.3528 15.3142 18.9698 14.9313L16.764 12.7254C16.3815 12.3425 15.7603 12.3425 15.3778 12.7254C14.9948 13.1083 14.9948 13.7288 15.3778 14.1117L17.5832 16.3175Z" fill="white"/>
<path d="M19.9999 14.3266C20.5412 14.3266 20.9804 13.8883 20.9804 13.3462V10.405C20.9804 9.86289 20.5412 9.42456 19.9999 9.42456C19.4587 9.42456 19.0195 9.86289 19.0195 10.405V13.3462C19.0195 13.8883 19.4587 14.3266 19.9999 14.3266Z" fill="white"/>
<path d="M22.6884 16.6046C22.9392 16.6046 23.19 16.5088 23.3817 16.3175L25.5875 14.1117C25.9704 13.7288 25.9704 13.1083 25.5875 12.7254C25.205 12.3425 24.5838 12.3425 24.2013 12.7254L21.9954 14.9313C21.6125 15.3142 21.6125 15.9346 21.9954 16.3175C22.1867 16.5088 22.4375 16.6046 22.6884 16.6046Z" fill="white"/>
</svg>
