<svg width="40" height="40" viewBox="0 0 40 40" fill="none" xmlns="http://www.w3.org/2000/svg">
<path d="M10.6195 37.5091C10.3384 37.5091 10.1107 37.2811 10.1107 37.0002V30.227C10.1107 29.9462 10.3384 29.7182 10.6195 29.7182C10.9006 29.7182 11.1283 29.9462 11.1283 30.227V37.0002C11.1283 37.2811 10.9006 37.5091 10.6195 37.5091Z" fill="#2D343A"/>
<path d="M23.875 37.5091C23.5939 37.5091 23.3662 37.2811 23.3662 37.0002V30.227C23.3662 29.9462 23.5939 29.7182 23.875 29.7182C24.1561 29.7182 24.3838 29.9462 24.3838 30.227V37.0002C24.3837 37.2811 24.1561 37.5091 23.875 37.5091Z" fill="#2D343A"/>
<path d="M14.6653 15.256H13.34C13.0589 15.256 12.8312 15.028 12.8312 14.7472C12.8312 14.4664 13.0589 14.2384 13.34 14.2384H14.6653C14.9465 14.2384 15.1741 14.4664 15.1741 14.7472C15.1741 15.028 14.9464 15.256 14.6653 15.256Z" fill="#2D343A"/>
<path d="M19.0174 19.7239C18.9052 19.7239 18.7922 19.6873 18.698 19.6114C18.0516 19.089 16.8104 19.0654 16.1227 19.563C15.8947 19.7276 15.5767 19.6767 15.412 19.4487C15.2474 19.2207 15.2987 18.9026 15.5263 18.738C16.0323 18.3721 16.6903 18.1708 17.3791 18.1708C18.1237 18.1708 18.8191 18.4006 19.3372 18.8187C19.5559 18.9958 19.5901 19.3158 19.4136 19.5344C19.3131 19.6593 19.1659 19.7239 19.0174 19.7239Z" fill="#2D343A"/>
<path d="M21.4357 15.256H20.1104C19.8292 15.256 19.6016 15.028 19.6016 14.7472C19.6016 14.4664 19.8292 14.2384 20.1104 14.2384H21.4357C21.7168 14.2384 21.9445 14.4664 21.9445 14.7472C21.9445 15.028 21.7168 15.256 21.4357 15.256Z" fill="#2D343A"/>
<path d="M31.9861 37.5091H2.5088C2.22768 37.5091 2 37.281 2 37.0002V35.0894C2 28.7186 6.02736 22.9686 12.022 20.7806C12.1994 20.7159 12.3997 20.7551 12.5401 20.8837C13.8341 22.0671 15.5059 22.7195 17.2474 22.7195C18.989 22.7195 20.6605 22.0671 21.9546 20.8837C22.0946 20.7557 22.2946 20.7172 22.4726 20.7806C28.4672 22.9686 32.495 28.7186 32.495 35.0894V37.0002C32.4949 37.281 32.2672 37.5091 31.9861 37.5091ZM3.0176 36.4915H31.4774V35.0895C31.4774 29.2449 27.8438 23.9602 22.4046 21.843C20.9582 23.0668 19.1391 23.7371 17.2474 23.7371C15.3555 23.7371 13.5366 23.0668 12.09 21.843C6.65112 23.9594 3.0176 29.2449 3.0176 35.0894V36.4915Z" fill="#2D343A"/>
<path d="M23.99 18.4399C23.8712 18.4399 23.7542 18.3983 23.6613 18.3194C23.5305 18.2094 23.4644 18.0404 23.4845 17.8708L23.9154 14.269C22.7351 12.4283 22.3952 10.1831 22.9844 8.07841C24.1216 4.01745 28.3488 1.63817 32.4128 2.77497C36.4741 3.91241 38.8528 8.14177 37.716 12.2034C36.5788 16.2643 32.3516 18.6431 28.2879 17.5068C28.118 17.459 27.9528 17.4043 27.7903 17.3459L24.1334 18.4195C24.0862 18.433 24.0378 18.4399 23.99 18.4399ZM30.3528 3.50921C27.4532 3.50921 24.7838 5.42753 23.9648 8.35297C23.4389 10.2309 23.7666 12.2381 24.8644 13.8595C24.933 13.9608 24.9628 14.0839 24.9482 14.205L24.5869 17.2254L27.6655 16.3215C27.7724 16.2904 27.8864 16.2947 27.9898 16.3339C28.1771 16.4054 28.3672 16.4712 28.5638 16.5271C32.0843 17.5118 35.7499 15.4493 36.7358 11.9288C37.7217 8.40825 35.6592 4.74113 32.1384 3.75529C31.5428 3.58873 30.943 3.50921 30.3528 3.50921Z" fill="#2D343A"/>
<path d="M30.4887 10.265C30.2075 10.265 29.9799 10.037 29.9799 9.75624V5.99168C29.9799 5.71088 30.2075 5.48288 30.4887 5.48288C30.7698 5.48288 30.9975 5.71088 30.9975 5.99168V9.75624C30.9975 10.037 30.7698 10.265 30.4887 10.265Z" fill="#2D343A"/>
<path d="M32.3519 13.3843C32.2218 13.3843 32.0913 13.3346 31.9919 13.2352L31.0061 12.2493C30.8075 12.0505 30.8075 11.7286 31.0061 11.5298C31.2049 11.331 31.5273 11.331 31.7261 11.5298L32.712 12.5158C32.9105 12.7146 32.9105 13.0364 32.712 13.2352C32.6126 13.3346 32.4821 13.3843 32.3519 13.3843Z" fill="#2D343A"/>
<path d="M32.3063 10.265H28.6711C27.3526 10.265 26.28 9.19216 26.28 7.87392C26.28 6.55576 27.3526 5.48288 28.6711 5.48288H32.3063C33.6245 5.48288 34.6971 6.55576 34.6971 7.87392C34.6971 9.19216 33.6245 10.265 32.3063 10.265ZM28.6712 6.50048C27.9139 6.50048 27.2977 7.11672 27.2977 7.87392C27.2977 8.63128 27.9139 9.24744 28.6712 9.24744H32.3063C33.0636 9.24744 33.6795 8.6312 33.6795 7.87392C33.6795 7.11664 33.0635 6.50048 32.3063 6.50048H28.6712Z" fill="#2D343A"/>
<path d="M29.736 15.2194C29.1235 15.2194 28.5112 14.9864 28.0451 14.5198C27.5934 14.0682 27.3446 13.4681 27.3446 12.8295C27.3446 12.1902 27.5934 11.5902 28.0454 11.1386L29.7876 9.39664C29.8829 9.30096 30.0124 9.24752 30.1473 9.24752H32.3064C32.7102 9.24752 33.0935 9.06368 33.3584 8.74312C33.455 8.62632 33.5988 8.55856 33.7507 8.55856C33.9026 8.55856 34.0464 8.62632 34.143 8.74312C34.932 9.6992 34.8692 11.0777 33.9973 11.9499L31.4267 14.5199C30.9608 14.9858 30.3483 15.2194 29.736 15.2194ZM30.3582 10.265L28.7648 11.8578C28.5054 12.1175 28.3625 12.4623 28.3625 12.8294C28.3625 13.196 28.5054 13.5407 28.7648 13.8004C29.3003 14.3359 30.1712 14.3359 30.7073 13.8004L33.2777 11.2304C33.6448 10.8626 33.7607 10.3383 33.616 9.86744C33.2302 10.1246 32.7767 10.265 32.3064 10.265H30.3582Z" fill="#2D343A"/>
<path d="M17.2474 23.7371C12.8345 23.7371 9.24475 20.147 9.24475 15.7343C9.24475 11.3217 12.8345 7.73169 17.2474 7.73169C18.6405 7.73169 20.0119 8.09697 21.214 8.78785C21.4575 8.92761 21.5413 9.23881 21.4012 9.48241C21.2615 9.72593 20.9511 9.81105 20.7063 9.67001C19.6587 9.06801 18.4625 8.74929 17.2473 8.74929C13.3957 8.74929 10.2623 11.8828 10.2623 15.7344C10.2623 19.586 13.3958 22.7195 17.2473 22.7195C19.435 22.7195 21.4543 21.7199 22.7869 19.9774C22.9574 19.7537 23.2768 19.7121 23.5 19.8823C23.7234 20.0531 23.766 20.3725 23.5952 20.5962C22.0684 22.5922 19.7547 23.7371 17.2474 23.7371Z" fill="#2D343A"/>
</svg>
