<svg width="40" height="40" viewBox="0 0 40 40" fill="none" xmlns="http://www.w3.org/2000/svg">
<g clip-path="url(#clip0_11_353)">
<path d="M5.78125 14.0591H16.4062C16.8378 14.0591 17.1875 13.7094 17.1875 13.2779V7.02789C17.1875 6.59637 16.8378 6.24664 16.4062 6.24664H5.78125C5.34973 6.24664 5 6.59637 5 7.02789V13.2779C5 13.7094 5.34973 14.0591 5.78125 14.0591ZM6.5625 7.80914H15.625V12.4966H6.5625V7.80914Z" fill="#2D343A"/>
<path d="M20.7031 14.0591H27.0312C27.4628 14.0591 27.8125 13.7094 27.8125 13.2779C27.8125 12.8464 27.4628 12.4966 27.0312 12.4966H20.7031C20.2716 12.4966 19.9219 12.8464 19.9219 13.2779C19.9219 13.7094 20.2716 14.0591 20.7031 14.0591Z" fill="#2D343A"/>
<path d="M16.4163 18.7466C16.2109 18.7466 16.0095 18.8303 15.8639 18.9755C15.718 19.1208 15.635 19.3225 15.635 19.5279C15.635 19.7336 15.718 19.935 15.8639 20.0803C16.0095 20.2255 16.2109 20.3091 16.4163 20.3091C16.6219 20.3091 16.8234 20.2255 16.9686 20.0803C17.1139 19.935 17.1975 19.7336 17.1975 19.5279C17.1975 19.3225 17.1139 19.1208 16.9686 18.9755C16.8234 18.8303 16.6219 18.7466 16.4163 18.7466Z" fill="#2D343A"/>
<path d="M5.78125 20.3091H13.2132C13.6444 20.3091 13.9944 19.9594 13.9944 19.5279C13.9944 19.0964 13.6444 18.7466 13.2132 18.7466H5.78125C5.34973 18.7466 5 19.0964 5 19.5279C5 19.9594 5.34973 20.3091 5.78125 20.3091Z" fill="#2D343A"/>
<path d="M16.4163 31.2466H9.21875C8.78723 31.2466 8.4375 31.5964 8.4375 32.0279C8.4375 32.4594 8.78723 32.8091 9.21875 32.8091H16.4163C16.8475 32.8091 17.1976 32.4594 17.1976 32.0279C17.1976 31.5964 16.8475 31.2466 16.4163 31.2466Z" fill="#2D343A"/>
<path d="M5.8728 31.2466C5.66711 31.2466 5.4657 31.3303 5.32043 31.4755C5.17487 31.6208 5.09155 31.8225 5.09155 32.0279C5.09155 32.2336 5.17487 32.435 5.32043 32.5803C5.4657 32.7255 5.66711 32.8091 5.8728 32.8091C6.07819 32.8091 6.2796 32.7255 6.42487 32.5803C6.57043 32.435 6.65405 32.2336 6.65405 32.0279C6.65405 31.8225 6.57043 31.6208 6.42487 31.4755C6.2796 31.3303 6.07819 31.2466 5.8728 31.2466Z" fill="#2D343A"/>
<path d="M5.78125 26.5591H16.4062C16.8378 26.5591 17.1875 26.2094 17.1875 25.7779C17.1875 25.3464 16.8378 24.9966 16.4062 24.9966H5.78125C5.34973 24.9966 5 25.3464 5 25.7779C5 26.2094 5.34973 26.5591 5.78125 26.5591Z" fill="#2D343A"/>
<path d="M39.5709 20.3397L32.8125 16.9263V8.91632C32.8125 8.70911 32.7304 8.51044 32.5839 8.36395L24.4589 0.229187C24.3124 0.0823975 24.1135 0 23.9062 0H3.28125C1.47186 0 0 1.47186 0 3.28125V36.7188C0 38.5281 1.47186 40 3.28125 40H29.5312C29.5496 40 29.5645 39.9991 29.5776 39.9976C29.5908 39.9982 29.6042 40 29.6176 40C29.747 40 29.8746 39.968 29.9884 39.9063C30.0122 39.8935 32.4118 38.598 34.8129 37.1924C37.507 35.6155 40 33.6288 40 29.8044V21.037C40 20.7422 39.834 20.4724 39.5709 20.3397ZM24.6875 2.66907L30.1434 8.13171H26.4062C25.4584 8.13171 24.6875 7.36053 24.6875 6.41296V2.66907ZM1.5625 36.7188V3.28125C1.5625 2.33337 2.33337 1.5625 3.28125 1.5625H23.125V6.24664H20.7031C20.2716 6.24664 19.9219 6.59637 19.9219 7.02789C19.9219 7.45941 20.2716 7.80914 20.7031 7.80914H23.4378C23.9633 8.92212 25.0961 9.69421 26.4062 9.69421H31.25V16.1371L29.9698 15.4904C29.8804 15.4453 29.7794 15.4178 29.6786 15.4092C29.6576 15.4077 29.6365 15.4065 29.6155 15.4065C29.6149 15.4065 29.6146 15.4065 29.614 15.4065C29.6136 15.4065 29.613 15.4065 29.6124 15.4065C29.6115 15.4065 29.6106 15.4065 29.6097 15.4065C29.6091 15.4065 29.6088 15.4065 29.6085 15.4065C29.6078 15.4065 29.6072 15.4065 29.6069 15.4065C29.4989 15.4071 29.3964 15.4294 29.3033 15.4697C29.2883 15.4761 29.2734 15.4831 29.259 15.4904L19.6576 20.3397C19.3945 20.4724 19.2285 20.7422 19.2285 21.037V29.8044C19.2285 33.6288 21.7215 35.6155 24.4159 37.1927C25.163 37.63 25.91 38.0569 26.5857 38.4375H3.28125C2.33337 38.4375 1.5625 37.6666 1.5625 36.7188ZM38.4375 29.8044C38.4375 32.6822 36.7487 34.249 34.0234 35.8441C32.1988 36.9122 30.3741 37.9166 29.6143 38.3313C28.8547 37.9169 27.0306 36.9128 25.2051 35.8441C22.4802 34.249 20.791 32.6822 20.791 29.8044V21.5176L29.6143 17.0615L38.4375 21.5176V29.8044Z" fill="#2D343A"/>
<path d="M29.2621 18.9896L22.7826 22.2623C22.5195 22.395 22.3535 22.6648 22.3535 22.9596V29.8044C22.3535 31.9562 23.6331 33.1134 25.9946 34.4955C27.2116 35.2081 28.4286 35.8911 29.2352 36.3388C29.353 36.4041 29.4836 36.4371 29.6143 36.4371C29.7449 36.4371 29.8755 36.4041 29.9933 36.3388C30.8002 35.8911 32.0172 35.2078 33.2339 34.4955C35.5954 33.1134 36.875 31.9565 36.875 29.8044V22.9596C36.875 22.6648 36.709 22.395 36.4459 22.2623L29.9664 18.9899C29.7452 18.8779 29.4836 18.8779 29.2621 18.9896ZM35.3125 23.4402V29.8044C35.3125 30.932 34.8834 31.7197 32.4448 33.1473C31.4185 33.7479 30.3906 34.3286 29.6143 34.7617C28.8382 34.3286 27.8107 33.7482 26.7841 33.1473C24.3454 31.7197 23.9163 30.932 23.9163 29.8044V23.4402L29.6146 20.5624L35.3125 23.4402Z" fill="#2D343A"/>
<path d="M27.6894 26.7401C27.3842 26.4352 26.8895 26.4352 26.5844 26.7401C26.2795 27.0453 26.2795 27.54 26.5844 27.8452L28.1871 29.4479C28.3397 29.6005 28.5396 29.6768 28.7395 29.6768C28.9397 29.6768 29.1396 29.6005 29.2922 29.4479L32.6439 26.0962C32.9488 25.791 32.9488 25.2963 32.6439 24.9911C32.3388 24.686 31.8441 24.686 31.5389 24.9911L28.7395 27.7905L27.6894 26.7401Z" fill="#2D343A"/>
</g>
<defs>
<clipPath id="clip0_11_353">
<rect width="40" height="40" fill="white"/>
</clipPath>
</defs>
</svg>
