<svg width="40" height="40" viewBox="0 0 40 40" fill="none" xmlns="http://www.w3.org/2000/svg">
<path fill-rule="evenodd" clip-rule="evenodd" d="M24.9997 10.4041C25.0033 10.629 24.9101 10.8537 24.7258 11.0109L17.9808 16.7662C17.7048 17.0016 17.3031 17.0162 17.0109 16.8013C16.7186 16.5865 16.6127 16.1988 16.7551 15.8652L18.5161 11.7406L15.2892 9.72516C15.039 9.56883 14.9079 9.29375 14.9231 9.01844C14.9101 8.77469 15.0112 8.52844 15.2166 8.365L22.3733 2.66992C22.6591 2.4425 23.0644 2.44344 23.3491 2.67219C23.6339 2.90094 23.7221 3.29648 23.5616 3.62453L21.736 7.35664L24.7126 9.78531C24.9054 9.94258 25.0035 10.173 24.9997 10.4041ZM16.9939 8.94758L19.9111 10.7696C20.2376 10.9736 20.3668 11.385 20.2157 11.739L19.4996 13.4162L23.015 10.4168L20.2679 8.17547C19.9867 7.94602 19.9005 7.55297 20.0601 7.22687L20.6361 6.04922L16.9939 8.94758ZM4.76396 4.93133C4.45693 4.62859 4.45341 4.13352 4.75615 3.82648C5.05888 3.51945 5.55396 3.51594 5.86099 3.81867L7.45544 5.3907V4.375C7.45544 4.05844 7.64646 3.77312 7.93919 3.65258C8.23193 3.53203 8.56849 3.60008 8.79138 3.82484L12.8203 7.88734C13.124 8.19352 13.1219 8.68859 12.8158 8.99219C12.5096 9.29586 12.0145 9.29375 11.7109 8.98766L9.01794 6.27227V7.25805C9.01794 7.57305 8.8288 7.85719 8.53826 7.97875C8.24763 8.10031 7.91248 8.03555 7.68818 7.81438L4.76396 4.93133ZM34.139 3.81867C34.446 3.51594 34.9411 3.51945 35.2438 3.82648C35.5465 4.13352 35.543 4.62859 35.236 4.93133L32.3118 7.81438C32.0875 8.03555 31.7523 8.10031 31.4617 7.97875C31.1711 7.85719 30.982 7.57305 30.982 7.25805V6.27227L28.289 8.98766C27.9854 9.29375 27.4904 9.29586 27.1842 8.99219C26.8781 8.68859 26.876 8.19352 27.1797 7.88734L31.2086 3.82484C31.4315 3.60008 31.768 3.53203 32.0608 3.65258C32.3535 3.77312 32.5445 4.05844 32.5445 4.375V5.3907L34.139 3.81867ZM5.86099 16.0251C5.55396 16.3278 5.05888 16.3243 4.75615 16.0173C4.45341 15.7102 4.45693 15.2152 4.76396 14.9124L7.68818 12.0294C7.91248 11.8082 8.24763 11.7434 8.53826 11.865C8.8288 11.9866 9.01794 12.2707 9.01794 12.5857V13.5715L11.7109 10.8561C12.0145 10.55 12.5096 10.5479 12.8158 10.8516C13.1219 11.1552 13.124 11.6502 12.8203 11.9564L8.79138 16.0189C8.56849 16.2437 8.23193 16.3117 7.93919 16.1912C7.64646 16.0706 7.45544 15.7853 7.45544 15.4687V14.453L5.86099 16.0251ZM35.236 14.9124C35.543 15.2152 35.5465 15.7102 35.2438 16.0173C34.9411 16.3243 34.446 16.3278 34.139 16.0251L32.5445 14.453V15.4687C32.5445 15.7853 32.3535 16.0706 32.0608 16.1912C31.768 16.3117 31.4315 16.2437 31.2086 16.0189L27.1797 11.9564C26.876 11.6502 26.8781 11.1552 27.1842 10.8516C27.4904 10.5479 27.9854 10.55 28.289 10.8561L30.982 13.5715V12.5857C30.982 12.2707 31.1711 11.9866 31.4617 11.865C31.7523 11.7434 32.0875 11.8082 32.3118 12.0294L35.236 14.9124ZM29.0422 25.982C27.1536 25.982 25.6226 24.451 25.6226 22.5624C25.6226 20.6739 27.1536 19.1429 29.0422 19.1429C30.9308 19.1429 32.4617 20.6739 32.4617 22.5624C32.4617 24.451 30.9308 25.982 29.0422 25.982ZM29.0422 24.4195C30.0678 24.4195 30.8992 23.588 30.8992 22.5624C30.8992 21.5369 30.0678 20.7054 29.0422 20.7054C28.0165 20.7054 27.1851 21.5369 27.1851 22.5624C27.1851 23.588 28.0165 24.4195 29.0422 24.4195ZM10.9984 25.982C9.10982 25.982 7.57888 24.451 7.57888 22.5624C7.57888 20.6739 9.10982 19.1429 10.9984 19.1429C12.8869 19.1429 14.4179 20.6739 14.4179 22.5624C14.4179 24.451 12.8869 25.982 10.9984 25.982ZM10.9984 24.4195C12.024 24.4195 12.8554 23.588 12.8554 22.5624C12.8554 21.5369 12.024 20.7054 10.9984 20.7054C9.97279 20.7054 9.14138 21.5369 9.14138 22.5624C9.14138 23.588 9.97279 24.4195 10.9984 24.4195ZM28.3773 37.8555C27.9461 37.8555 27.5961 37.5055 27.5961 37.0743C27.5961 36.6431 27.9461 36.293 28.3773 36.293C28.3773 36.293 32.4155 36.293 32.4161 36.293C32.9732 36.2402 33.3308 36.1945 33.5344 35.9687C33.6706 35.8176 33.7054 35.5969 33.7394 35.3066C33.794 34.8416 33.7914 34.247 33.7914 33.4868V30.886C33.7914 30.8771 33.768 29.8908 32.8621 29.0936C32.1627 28.4781 30.9858 28.0048 29.0429 28.0048C28.8064 28.0048 28.5801 28.012 28.3647 28.0252C27.9344 28.0515 27.5636 27.7234 27.5374 27.293C27.5111 26.8626 27.8392 26.4919 28.2696 26.4656C28.5151 26.4506 28.7733 26.4423 29.0429 26.4423C31.524 26.4423 33.0011 27.1346 33.8944 27.9206C35.3773 29.2256 35.3539 30.8715 35.3539 30.886V33.4868C35.3539 34.5085 35.3469 35.2627 35.2413 35.8198C35.1442 36.3323 34.9645 36.7159 34.6949 37.0149C34.2918 37.462 33.6451 37.747 32.5254 37.8521L32.489 37.8555H28.3773ZM11.7744 26.4664C12.2047 26.4941 12.5315 26.8659 12.5038 27.2962C12.4761 27.7265 12.1043 28.0534 11.674 28.0256C11.4594 28.0118 11.234 28.0054 10.9984 28.0054C9.0556 28.0054 7.87865 28.4787 7.17927 29.0942C6.27333 29.8914 6.24998 30.8777 6.24998 30.8866V33.4874C6.24998 34.2477 6.2474 34.8423 6.30193 35.3072C6.33599 35.5975 6.37076 35.8182 6.50693 35.9693C6.71068 36.1952 7.06841 36.2409 7.62584 36.2937H11.6633C12.0944 36.2937 12.4445 36.6437 12.4445 37.0749C12.4445 37.5061 12.0944 37.8562 11.6633 37.8562H7.5524L7.51599 37.8527C6.3963 37.7476 5.74958 37.4627 5.34646 37.0155C5.07685 36.7165 4.89716 36.333 4.80005 35.8204C4.69451 35.2633 4.68748 34.5091 4.68748 33.4874V30.8866C4.68748 30.8721 4.66404 29.2262 6.14701 27.9212C7.04021 27.1352 8.51732 26.4429 10.9984 26.4429C11.269 26.4429 11.528 26.4505 11.7744 26.4664ZM20.1492 24.8031C18.1109 24.8031 16.4586 23.1508 16.4586 21.1125C16.4586 19.0742 18.1109 17.4219 20.1492 17.4219C22.1875 17.4219 23.8398 19.0742 23.8398 21.1125C23.8398 23.1508 22.1875 24.8031 20.1492 24.8031ZM20.1492 23.2406C21.3245 23.2406 22.2773 22.2878 22.2773 21.1125C22.2773 19.9372 21.3245 18.9844 20.1492 18.9844C18.9739 18.9844 18.0211 19.9372 18.0211 21.1125C18.0211 22.2878 18.9739 23.2406 20.1492 23.2406ZM16.3532 37.8945L16.3168 37.891C15.1102 37.7777 14.4113 37.4759 13.9769 36.994C13.6886 36.6741 13.4976 36.2633 13.3938 35.715C13.2781 35.1043 13.2711 34.2777 13.2711 33.1577V30.2905C13.2711 30.2745 13.2476 28.4937 14.8532 27.0809C15.828 26.2231 17.4412 25.471 20.1492 25.471C22.8572 25.471 24.4704 26.2231 25.4452 27.0809C27.0508 28.4937 27.0273 30.2745 27.0273 30.2905V33.1577C27.0273 34.2777 27.0203 35.1043 26.9046 35.715C26.8008 36.2633 26.6098 36.6741 26.3215 36.994C25.8871 37.4759 25.1882 37.7777 23.9816 37.891L23.9452 37.8945H16.3532ZM23.8717 36.332H23.8721C24.5158 36.2707 24.9259 36.2084 25.1609 35.9478C25.3205 35.7707 25.3671 35.5137 25.407 35.1734C25.4674 34.6584 25.4648 33.9998 25.4648 33.1577V30.2905C25.4648 30.2803 25.4415 29.1589 24.413 28.254C23.6319 27.5666 22.3189 27.0335 20.1492 27.0335C17.9795 27.0335 16.6665 27.5666 15.8854 28.254C14.8569 29.1589 14.8336 30.2803 14.8336 30.2905V33.1577C14.8336 33.9998 14.831 34.6584 14.8914 35.1734C14.9313 35.5137 14.9779 35.7707 15.1375 35.9478C15.3725 36.2085 15.7826 36.2707 16.4267 36.332H23.8717Z" fill="#2D343A"/>
</svg>
