<svg width="63" height="63" viewBox="0 0 63 63" fill="none" xmlns="http://www.w3.org/2000/svg">
<g clip-path="url(#clip0_7_140)">
<path d="M0.0133947 43.7161C0.0133947 51.9989 6.72752 58.7131 15.0102 58.7131C23.293 58.7131 30.0071 51.9989 30.0071 43.7161C30.0071 35.4334 23.293 28.7193 15.0102 28.7193C13.308 28.7193 11.6785 29.0161 10.1532 29.539C13.5281 10.183 28.6221 -2.29952 14.63 7.9738C-0.885146 19.3658 -0.00322202 43.2578 0.0141387 43.6957C0.0141387 43.7025 0.0133947 43.7086 0.0133947 43.7161Z" fill="white"/>
<path d="M33.0063 43.7161C33.0063 51.9989 39.7205 58.7131 48.0033 58.7131C56.2861 58.7131 63.0002 51.9989 63.0002 43.7161C63.0002 35.4334 56.2859 28.7193 48.0031 28.7193C46.3008 28.7193 44.6715 29.0161 43.1461 29.539C46.521 10.183 61.615 -2.29952 47.6229 7.9738C32.1078 19.3658 32.9896 43.2578 33.0071 43.6957C33.0071 43.7025 33.0063 43.7086 33.0063 43.7161Z" fill="white"/>
</g>
<defs>
<clipPath id="clip0_7_140">
<rect width="63" height="63" fill="white"/>
</clipPath>
</defs>
</svg>
