<svg width="84" height="41" viewBox="0 0 84 41" fill="none" xmlns="http://www.w3.org/2000/svg">
<g clip-path="url(#clip0_11_186)">
<path d="M81.6635 15.8972C79.4879 11.8569 77.0942 7.79611 72.8549 5.66419C69.0653 3.76222 64.6373 3.59586 60.5607 4.49972C56.1221 5.48571 52.0929 7.95986 48.8109 11.0741C47.1224 12.6759 45.6018 14.4388 44.2236 16.3154C43.5433 17.2493 42.8923 18.211 42.2749 19.187C41.6575 20.163 41.0294 21.1533 40.783 22.2939C40.5769 23.27 40.7713 24.3493 41.4455 25.1012C42.1576 25.8987 43.2699 26.0239 44.2661 25.8154C46.5169 25.3434 48.5147 23.5078 49.8943 21.7327C52.5691 18.3024 54.0406 12.9093 51.3457 9.04932C48.6508 5.18933 43.3471 4.68694 39.0565 5.6905C34.7659 6.69407 30.2122 9.03767 26.4036 11.5956C19.1736 16.4478 13.1924 23.1801 9.40903 31.0629C8.93703 32.0378 8.51196 33.0316 8.12053 34.0398C7.66747 35.1965 10.2237 34.5549 10.5497 33.7593C13.4325 26.682 17.9035 20.3759 23.7435 15.4499C26.627 13.0206 29.8039 10.9257 33.2063 9.31441C36.875 7.57073 41.1258 5.9623 45.1579 7.4236C46.9707 8.08078 48.576 9.33908 49.4288 11.1026C50.2816 12.8661 50.391 15.0636 49.9442 17.0396C49.4975 19.0156 48.5337 20.7774 47.2321 22.2492C46.6743 22.8799 46.0412 23.4703 45.3411 23.9428C45.0169 24.1595 44.7236 24.372 44.3313 24.2358C43.8663 24.0779 43.569 23.6233 43.4001 23.1826C42.7097 21.3584 44.3871 19.3575 45.341 17.9341C46.4891 16.223 47.7486 14.5854 49.1382 13.0632C51.6868 10.2736 54.7885 7.82029 58.3849 6.5572C62.156 5.23164 66.4533 5.23179 70.1419 6.81716C74.5566 8.7085 77.0103 12.8818 79.2116 16.9249C79.6701 17.764 82.0752 16.6729 81.6556 15.8856L81.6618 15.8847L81.6635 15.8972Z" fill="#2D343A"/>
<path d="M16.2173 29.277L10.7316 34.6116L8.08876 37.1791C7.35248 37.8919 6.60122 38.8611 5.61248 39.2147L7.02319 39.1648C6.28636 38.3262 6.28065 37.0108 6.20409 35.9596C6.12087 34.7695 6.08732 33.5724 6.04756 32.3762C5.96717 29.9775 5.93065 27.4392 5.17972 25.1338C4.89426 24.2642 2.55771 25.2568 2.73575 26.173C3.23939 28.7481 3.40889 31.287 3.49394 33.9012C3.53963 35.1856 3.57912 36.4709 3.71968 37.7548C3.83349 38.8008 4.01948 39.7287 4.72714 40.5396C5.02753 40.8793 5.81211 40.6049 6.13784 40.4897C7.36179 40.0524 8.30771 39.2088 9.2272 38.3115C10.2418 37.3248 11.2565 36.338 12.2773 35.3504L18.3704 29.4227C18.7884 29.0149 18.4874 28.5799 17.9928 28.5278C17.3316 28.4608 16.6691 28.8391 16.212 29.2841L16.2173 29.277Z" fill="#2D343A"/>
</g>
<defs>
<clipPath id="clip0_11_186">
<rect width="80.2428" height="30.0911" fill="white" transform="translate(83.6226 29.8042) rotate(172.084)"/>
</clipPath>
</defs>
</svg>
