<svg width="40" height="36" viewBox="0 0 40 36" fill="none" xmlns="http://www.w3.org/2000/svg">
<path d="M35.625 10.375H30.625V4.75C30.6237 3.59008 30.1623 2.47805 29.3421 1.65787C28.5219 0.837685 27.4099 0.376323 26.25 0.375H13.75C12.5901 0.376323 11.4781 0.837685 10.6579 1.65787C9.83768 2.47805 9.37632 3.59008 9.375 4.75V10.375H4.375C3.38074 10.376 2.42749 10.7714 1.72445 11.4744C1.0214 12.1775 0.625993 13.1307 0.625 14.125V31.625C0.625993 32.6193 1.0214 33.5725 1.72445 34.2756C2.42749 34.9786 3.38074 35.374 4.375 35.375H35.625C36.6193 35.374 37.5725 34.9786 38.2756 34.2756C38.9786 33.5725 39.374 32.6193 39.375 31.625V14.125C39.374 13.1307 38.9786 12.1775 38.2756 11.4744C37.5725 10.7714 36.6193 10.376 35.625 10.375ZM10.625 4.75C10.626 3.9215 10.9556 3.12722 11.5414 2.54139C12.1272 1.95555 12.9215 1.62599 13.75 1.625H26.25C27.0785 1.62599 27.8728 1.95555 28.4586 2.54139C29.0444 3.12722 29.374 3.9215 29.375 4.75V10.375H28.125V5.375C28.125 4.71196 27.8616 4.07607 27.3928 3.60723C26.9239 3.13839 26.288 2.875 25.625 2.875H14.375C13.712 2.875 13.0761 3.13839 12.6072 3.60723C12.1384 4.07607 11.875 4.71196 11.875 5.375V10.375H10.625V4.75ZM26.875 10.375H13.125V5.375C13.125 5.04348 13.2567 4.72554 13.4911 4.49112C13.7255 4.2567 14.0435 4.125 14.375 4.125H25.625C25.9565 4.125 26.2745 4.2567 26.5089 4.49112C26.7433 4.72554 26.875 5.04348 26.875 5.375V10.375ZM4.375 11.625H35.625C36.288 11.625 36.9239 11.8884 37.3928 12.3572C37.8616 12.8261 38.125 13.462 38.125 14.125V16.3662L33.5988 20.8925C33.3671 21.1254 33.0915 21.3101 32.7881 21.4358C32.4846 21.5616 32.1591 21.6259 31.8306 21.625H29.1875C28.7572 19.5057 27.6074 17.6004 25.933 16.2318C24.2586 14.8632 22.1625 14.1156 20 14.1156C17.8375 14.1156 15.7414 14.8632 14.067 16.2318C12.3926 17.6004 11.2428 19.5057 10.8125 21.625H8.16937C7.84086 21.6259 7.51544 21.5616 7.21195 21.4358C6.90845 21.3101 6.6329 21.1254 6.40125 20.8925L1.875 16.3662V14.125C1.875 13.462 2.13839 12.8261 2.60723 12.3572C3.07607 11.8884 3.71196 11.625 4.375 11.625ZM19.375 29.75V31.5931C17.4445 31.4424 15.6312 30.6072 14.262 29.238C12.8928 27.8688 12.0576 26.0555 11.9069 24.125H13.75V22.875H11.9069C12.0576 20.9445 12.8928 19.1312 14.262 17.762C15.6312 16.3928 17.4445 15.5576 19.375 15.4069V23.5C19.375 23.6658 19.4408 23.8247 19.5581 23.9419C19.6753 24.0592 19.8342 24.125 20 24.125H28.0931C27.9424 26.0555 27.1072 27.8688 25.738 29.238C24.3688 30.6072 22.5555 31.4424 20.625 31.5931V29.75H19.375ZM20.625 15.4069C22.5555 15.5576 24.3688 16.3928 25.738 17.762C27.1072 19.1312 27.9424 20.9445 28.0931 22.875H20.625V15.4069ZM35.625 34.125H4.375C3.71196 34.125 3.07607 33.8616 2.60723 33.3928C2.13839 32.9239 1.875 32.288 1.875 31.625V18.1338L5.5175 21.7763C5.86491 22.1257 6.27817 22.4027 6.73337 22.5913C7.18857 22.7799 7.67665 22.8763 8.16937 22.875H10.6569C10.6431 23.0825 10.625 23.2887 10.625 23.5C10.625 25.9864 11.6127 28.371 13.3709 30.1291C15.129 31.8873 17.5136 32.875 20 32.875C22.4864 32.875 24.871 31.8873 26.6291 30.1291C28.3873 28.371 29.375 25.9864 29.375 23.5C29.375 23.2887 29.3569 23.0825 29.3431 22.875H31.8306C32.3233 22.8763 32.8114 22.7799 33.2666 22.5913C33.7218 22.4027 34.1351 22.1257 34.4825 21.7763L38.125 18.1338V31.625C38.125 32.288 37.8616 32.9239 37.3928 33.3928C36.9239 33.8616 36.288 34.125 35.625 34.125Z" fill="#2D343A"/>
</svg>
