<svg width="40" height="40" viewBox="0 0 40 40" fill="none" xmlns="http://www.w3.org/2000/svg">
<g clip-path="url(#clip0_11_459)">
<path d="M2 36H18.2C19.742 38.6 23.3213 40 28.6667 40C35.9753 40 40 37.3947 40 32.6627C40 29.1293 37.2433 23.112 32.832 20.644C33.0209 20.4315 33.162 20.1809 33.2456 19.9092C33.3292 19.6374 33.3534 19.3509 33.3165 19.0689C33.2796 18.787 33.1826 18.5163 33.0319 18.2752C32.8813 18.034 32.6805 17.8281 32.4433 17.6713L34.3427 15.2713C34.5257 15.0251 34.6362 14.7327 34.6617 14.427C34.6873 14.1213 34.6269 13.8145 34.4873 13.5413C34.3597 13.2802 34.1616 13.0599 33.9154 12.9053C33.6692 12.7508 33.3847 12.6681 33.094 12.6667H32.554C32.6071 12.4387 32.6115 12.2021 32.5668 11.9723C32.5221 11.7425 32.4294 11.5248 32.2947 11.3333C32.1537 11.1276 31.9646 10.9593 31.7439 10.8431C31.5232 10.727 31.2774 10.6664 31.028 10.6667H26.6667V5.60668C26.6676 5.43203 26.6337 5.25894 26.567 5.09754C26.5002 4.93614 26.402 4.78967 26.278 4.66668L22 0.38801C21.8768 0.264397 21.7302 0.166456 21.5689 0.0998555C21.4075 0.0332552 21.2346 -0.000681225 21.06 1.03612e-05H2C1.46957 1.03612e-05 0.960859 0.210724 0.585786 0.585797C0.210714 0.96087 0 1.46958 0 2.00001L0 34C0 34.5304 0.210714 35.0392 0.585786 35.4142C0.960859 35.7893 1.46957 36 2 36ZM38.6667 32.6627C38.6667 37.8867 32.4 38.6667 28.6667 38.6667C24.9333 38.6667 18.6667 37.8867 18.6667 32.6627C18.6667 29.282 21.644 23.0793 26.138 21.3333H31.1953C35.6893 23.0793 38.6667 29.282 38.6667 32.6627ZM26 18.6667H31.3333C31.5101 18.6667 31.6797 18.7369 31.8047 18.8619C31.9298 18.987 32 19.1565 32 19.3333C32 19.5102 31.9298 19.6797 31.8047 19.8048C31.6797 19.9298 31.5101 20 31.3333 20H26C25.8232 20 25.6536 19.9298 25.5286 19.8048C25.4036 19.6797 25.3333 19.5102 25.3333 19.3333C25.3333 19.1565 25.4036 18.987 25.5286 18.8619C25.6536 18.7369 25.8232 18.6667 26 18.6667ZM31.206 12.1007C31.2359 12.1444 31.2549 12.1946 31.2615 12.2471C31.2681 12.2996 31.2621 12.3529 31.244 12.4027L30.994 13.1113C30.9585 13.212 30.9476 13.3196 30.9623 13.4253C30.977 13.531 31.0169 13.6316 31.0786 13.7186C31.1402 13.8057 31.2219 13.8767 31.3167 13.9257C31.4115 13.9746 31.5166 14.0001 31.6233 14H33.094C33.1372 14.0019 33.179 14.0161 33.2144 14.0409C33.2498 14.0657 33.2774 14.1001 33.294 14.14C33.3208 14.1894 33.3339 14.2451 33.3318 14.3013C33.3297 14.3575 33.3125 14.4121 33.282 14.4593L31.0107 17.3333H26.3227L24.0613 14.476C24.027 14.4281 24.0065 14.3716 24.0021 14.3128C23.9978 14.254 24.0097 14.1951 24.0367 14.1427C24.0532 14.1027 24.0809 14.0684 24.1163 14.0436C24.1517 14.0188 24.1935 14.0046 24.2367 14.0027H25.7087C25.8154 14.0027 25.9206 13.9771 26.0153 13.9281C26.1101 13.8791 26.1917 13.808 26.2533 13.7208C26.3149 13.6337 26.3547 13.533 26.3693 13.4273C26.384 13.3216 26.373 13.2139 26.3373 13.1133L26.0887 12.4C26.0709 12.3504 26.0651 12.2973 26.0718 12.245C26.0786 12.1928 26.0976 12.1428 26.1273 12.0993C26.1465 12.0694 26.1728 12.0447 26.2039 12.0274C26.2349 12.01 26.2698 12.0006 26.3053 12H31.028C31.0637 12.0008 31.0986 12.0104 31.1297 12.0279C31.1607 12.0455 31.187 12.0705 31.206 12.1007ZM22 2.27534L24.3927 4.66668H22.6667C22.4899 4.66668 22.3203 4.59644 22.1953 4.47142C22.0702 4.34639 22 4.17682 22 4.00001V2.27534ZM1.33333 2.00001C1.33333 1.8232 1.40357 1.65363 1.5286 1.52861C1.65362 1.40358 1.82319 1.33334 2 1.33334H20.6667V4.00001C20.6667 4.53044 20.8774 5.03915 21.2525 5.41422C21.6275 5.7893 22.1362 6.00001 22.6667 6.00001H25.3333V11.02C25.2216 11.1101 25.1225 11.2148 25.0387 11.3313C24.9039 11.5227 24.8111 11.7405 24.7664 11.9703C24.7217 12.2001 24.7261 12.4367 24.7793 12.6647H24.2393C23.9487 12.666 23.6643 12.7486 23.4181 12.903C23.1719 13.0575 22.9737 13.2776 22.846 13.5387C22.7058 13.8153 22.6462 14.1257 22.674 14.4346C22.7018 14.7435 22.8159 15.0383 23.0033 15.2853L24.89 17.6693C24.6528 17.8261 24.452 18.032 24.3014 18.2732C24.1507 18.5143 24.0537 18.785 24.0168 19.0669C23.98 19.3489 24.0042 19.6354 24.0877 19.9072C24.1713 20.1789 24.3124 20.4295 24.5013 20.642C20.09 23.112 17.3333 29.126 17.3333 32.6627C17.3319 33.3411 17.4289 34.0161 17.6213 34.6667H2C1.82319 34.6667 1.65362 34.5964 1.5286 34.4714C1.40357 34.3464 1.33333 34.1768 1.33333 34V2.00001Z" fill="white"/>
<path d="M6.66667 9.33333H7.33333V13.3333C7.33333 13.5101 7.40357 13.6797 7.5286 13.8047C7.65362 13.9298 7.82319 14 8 14C8.17681 14 8.34638 13.9298 8.4714 13.8047C8.59643 13.6797 8.66667 13.5101 8.66667 13.3333V9.33333H9.33333C9.51014 9.33333 9.67971 9.2631 9.80474 9.13807C9.92976 9.01305 10 8.84348 10 8.66667C10 8.48986 9.92976 8.32029 9.80474 8.19526C9.67971 8.07024 9.51014 8 9.33333 8H6.66667C6.48986 8 6.32029 8.07024 6.19526 8.19526C6.07024 8.32029 6 8.48986 6 8.66667C6 8.84348 6.07024 9.01305 6.19526 9.13807C6.32029 9.2631 6.48986 9.33333 6.66667 9.33333Z" fill="white"/>
<path d="M12 14C12.1769 14 12.3464 13.9298 12.4714 13.8047C12.5965 13.6797 12.6667 13.5101 12.6667 13.3333V12H14V13.3333C14 13.5101 14.0703 13.6797 14.1953 13.8047C14.3203 13.9298 14.4899 14 14.6667 14C14.8435 14 15.0131 13.9298 15.1381 13.8047C15.2631 13.6797 15.3334 13.5101 15.3334 13.3333V10C15.3334 9.46957 15.1227 8.96086 14.7476 8.58579C14.3725 8.21071 13.8638 8 13.3334 8C12.8029 8 12.2942 8.21071 11.9192 8.58579C11.5441 8.96086 11.3334 9.46957 11.3334 10V13.3333C11.3334 13.5101 11.4036 13.6797 11.5286 13.8047C11.6537 13.9298 11.8232 14 12 14ZM13.3334 9.33333C13.5102 9.33333 13.6798 9.40357 13.8048 9.5286C13.9298 9.65362 14 9.82319 14 10V10.6667H12.6667V10C12.6667 9.82319 12.7369 9.65362 12.862 9.5286C12.987 9.40357 13.1566 9.33333 13.3334 9.33333Z" fill="white"/>
<path d="M16.9999 13.912C17.1534 13.9996 17.3354 14.0228 17.506 13.9762C17.6765 13.9297 17.8215 13.8174 17.9093 13.664L18.6666 12.3433L19.4213 13.6667C19.4635 13.7448 19.521 13.8138 19.5903 13.8695C19.6596 13.9251 19.7393 13.9663 19.8248 13.9907C19.9102 14.0151 19.9997 14.0222 20.0879 14.0115C20.1762 14.0008 20.2614 13.9726 20.3385 13.9285C20.4157 13.8844 20.4833 13.8253 20.5373 13.7548C20.5913 13.6842 20.6306 13.6035 20.653 13.5175C20.6753 13.4315 20.6803 13.3418 20.6675 13.2539C20.6547 13.1659 20.6245 13.0814 20.5786 13.0053L19.4346 11.0053L20.5786 9.00532C20.6245 8.92922 20.6547 8.84471 20.6675 8.75676C20.6803 8.6688 20.6753 8.57919 20.653 8.49317C20.6306 8.40716 20.5913 8.32648 20.5373 8.25589C20.4833 8.1853 20.4157 8.12623 20.3385 8.08213C20.2614 8.03804 20.1762 8.00982 20.0879 7.99913C19.9997 7.98844 19.9102 7.99551 19.8248 8.0199C19.7393 8.0443 19.6596 8.08554 19.5903 8.1412C19.521 8.19685 19.4635 8.2658 19.4213 8.34399L18.6666 9.65666L17.9119 8.33332C17.822 8.18427 17.6774 8.07629 17.5089 8.03248C17.3404 7.98867 17.1615 8.01249 17.0103 8.09886C16.8592 8.18523 16.7478 8.32729 16.7 8.49468C16.6523 8.66207 16.6718 8.84151 16.7546 8.99466L17.8986 10.9947L16.7546 12.9947C16.7098 13.0708 16.6807 13.1552 16.6688 13.2427C16.6569 13.3303 16.6625 13.4193 16.6854 13.5047C16.7082 13.59 16.7477 13.67 16.8018 13.7399C16.8558 13.8098 16.9231 13.8683 16.9999 13.912Z" fill="white"/>
<path d="M4.00004 18H5.33337C5.51019 18 5.67975 17.9298 5.80478 17.8047C5.9298 17.6797 6.00004 17.5101 6.00004 17.3333C6.00004 17.1565 5.9298 16.9869 5.80478 16.8619C5.67975 16.7369 5.51019 16.6667 5.33337 16.6667H4.00004C3.82323 16.6667 3.65366 16.7369 3.52864 16.8619C3.40361 16.9869 3.33337 17.1565 3.33337 17.3333C3.33337 17.5101 3.40361 17.6797 3.52864 17.8047C3.65366 17.9298 3.82323 18 4.00004 18Z" fill="white"/>
<path d="M7.33337 17.3333C7.33337 17.5101 7.40361 17.6797 7.52864 17.8047C7.65366 17.9298 7.82323 18 8.00004 18H21.3334C21.5102 18 21.6798 17.9298 21.8048 17.8047C21.9298 17.6797 22 17.5101 22 17.3333C22 17.1565 21.9298 16.9869 21.8048 16.8619C21.6798 16.7369 21.5102 16.6667 21.3334 16.6667H8.00004C7.82323 16.6667 7.65366 16.7369 7.52864 16.8619C7.40361 16.9869 7.33337 17.1565 7.33337 17.3333Z" fill="white"/>
<path d="M4.00004 22H5.33337C5.51019 22 5.67975 21.9298 5.80478 21.8047C5.9298 21.6797 6.00004 21.5101 6.00004 21.3333C6.00004 21.1565 5.9298 20.9869 5.80478 20.8619C5.67975 20.7369 5.51019 20.6667 5.33337 20.6667H4.00004C3.82323 20.6667 3.65366 20.7369 3.52864 20.8619C3.40361 20.9869 3.33337 21.1565 3.33337 21.3333C3.33337 21.5101 3.40361 21.6797 3.52864 21.8047C3.65366 21.9298 3.82323 22 4.00004 22Z" fill="white"/>
<path d="M18.6667 20.6667H8.00004C7.82323 20.6667 7.65366 20.7369 7.52864 20.8619C7.40361 20.9869 7.33337 21.1565 7.33337 21.3333C7.33337 21.5101 7.40361 21.6797 7.52864 21.8047C7.65366 21.9298 7.82323 22 8.00004 22H18.6667C18.8435 22 19.0131 21.9298 19.1381 21.8047C19.2631 21.6797 19.3334 21.5101 19.3334 21.3333C19.3334 21.1565 19.2631 20.9869 19.1381 20.8619C19.0131 20.7369 18.8435 20.6667 18.6667 20.6667Z" fill="white"/>
<path d="M4.00004 26H5.33337C5.51019 26 5.67975 25.9298 5.80478 25.8047C5.9298 25.6797 6.00004 25.5101 6.00004 25.3333C6.00004 25.1565 5.9298 24.9869 5.80478 24.8619C5.67975 24.7369 5.51019 24.6667 5.33337 24.6667H4.00004C3.82323 24.6667 3.65366 24.7369 3.52864 24.8619C3.40361 24.9869 3.33337 25.1565 3.33337 25.3333C3.33337 25.5101 3.40361 25.6797 3.52864 25.8047C3.65366 25.9298 3.82323 26 4.00004 26Z" fill="white"/>
<path d="M16.6667 24.6667H8.00004C7.82323 24.6667 7.65366 24.7369 7.52864 24.8619C7.40361 24.9869 7.33337 25.1565 7.33337 25.3333C7.33337 25.5101 7.40361 25.6797 7.52864 25.8047C7.65366 25.9298 7.82323 26 8.00004 26H16.6667C16.8435 26 17.0131 25.9298 17.1381 25.8047C17.2631 25.6797 17.3334 25.5101 17.3334 25.3333C17.3334 25.1565 17.2631 24.9869 17.1381 24.8619C17.0131 24.7369 16.8435 24.6667 16.6667 24.6667Z" fill="white"/>
<path d="M4.00004 30H5.33337C5.51019 30 5.67975 29.9298 5.80478 29.8047C5.9298 29.6797 6.00004 29.5101 6.00004 29.3333C6.00004 29.1565 5.9298 28.9869 5.80478 28.8619C5.67975 28.7369 5.51019 28.6667 5.33337 28.6667H4.00004C3.82323 28.6667 3.65366 28.7369 3.52864 28.8619C3.40361 28.9869 3.33337 29.1565 3.33337 29.3333C3.33337 29.5101 3.40361 29.6797 3.52864 29.8047C3.65366 29.9298 3.82323 30 4.00004 30Z" fill="white"/>
<path d="M14.6667 28.6667H8.00004C7.82323 28.6667 7.65366 28.7369 7.52864 28.8619C7.40361 28.9869 7.33337 29.1565 7.33337 29.3333C7.33337 29.5101 7.40361 29.6797 7.52864 29.8047C7.65366 29.9298 7.82323 30 8.00004 30H14.6667C14.8435 30 15.0131 29.9298 15.1381 29.8047C15.2631 29.6797 15.3334 29.5101 15.3334 29.3333C15.3334 29.1565 15.2631 28.9869 15.1381 28.8619C15.0131 28.7369 14.8435 28.6667 14.6667 28.6667Z" fill="white"/>
<path d="M30.6666 27.3333C30.6666 27.5102 30.7369 27.6797 30.8619 27.8047C30.9869 27.9298 31.1565 28 31.3333 28C31.5101 28 31.6797 27.9298 31.8047 27.8047C31.9297 27.6797 32 27.5102 32 27.3333C31.999 26.5652 31.7332 25.8209 31.2475 25.2258C30.7617 24.6308 30.0857 24.2214 29.3333 24.0667V24C29.3333 23.8232 29.2631 23.6536 29.138 23.5286C29.013 23.4036 28.8434 23.3333 28.6666 23.3333C28.4898 23.3333 28.3203 23.4036 28.1952 23.5286C28.0702 23.6536 28 23.8232 28 24V24.0667C27.2464 24.2197 26.569 24.6285 26.0824 25.2238C25.5958 25.8192 25.33 26.5644 25.33 27.3333C25.33 28.1022 25.5958 28.8475 26.0824 29.4428C26.569 30.0382 27.2464 30.447 28 30.6V34.5447C27.6113 34.4073 27.2745 34.1531 27.0358 33.8169C26.7972 33.4807 26.6682 33.079 26.6666 32.6667C26.6666 32.4899 26.5964 32.3203 26.4714 32.1953C26.3463 32.0702 26.1768 32 26 32C25.8232 32 25.6536 32.0702 25.5286 32.1953C25.4035 32.3203 25.3333 32.4899 25.3333 32.6667C25.3343 33.4348 25.6 34.1791 26.0858 34.7742C26.5715 35.3692 27.2476 35.7786 28 35.9333V36C28 36.1768 28.0702 36.3464 28.1952 36.4714C28.3203 36.5964 28.4898 36.6667 28.6666 36.6667C28.8434 36.6667 29.013 36.5964 29.138 36.4714C29.2631 36.3464 29.3333 36.1768 29.3333 36V35.9333C30.0868 35.7803 30.7643 35.3715 31.2509 34.7762C31.7375 34.1808 32.0033 33.4356 32.0033 32.6667C32.0033 31.8978 31.7375 31.1525 31.2509 30.5572C30.7643 29.9618 30.0868 29.553 29.3333 29.4V25.456C29.7219 25.5934 30.0586 25.8475 30.2972 26.1835C30.5359 26.5196 30.6649 26.9212 30.6666 27.3333ZM26.6666 27.3333C26.6683 26.9212 26.7974 26.5196 27.036 26.1835C27.2747 25.8475 27.6114 25.5934 28 25.456V29.2107C27.6114 29.0733 27.2747 28.8192 27.036 28.4831C26.7974 28.1471 26.6683 27.7455 26.6666 27.3333ZM30.6666 32.6667C30.6649 33.0789 30.5359 33.4804 30.2972 33.8165C30.0586 34.1525 29.7219 34.4066 29.3333 34.544V30.7893C29.7219 30.9267 30.0586 31.1808 30.2972 31.5169C30.5359 31.8529 30.6649 32.2545 30.6666 32.6667Z" fill="white"/>
</g>
<defs>
<clipPath id="clip0_11_459">
<rect width="40" height="40" fill="white"/>
</clipPath>
</defs>
</svg>
