<svg width="40" height="40" viewBox="0 0 40 40" fill="none" xmlns="http://www.w3.org/2000/svg">
<g clip-path="url(#clip0_11_328)">
<path d="M39.4988 32.1209L29.3214 14.9201C29.1566 14.6417 28.7974 14.5494 28.5188 14.7143C28.2404 14.879 28.1481 15.2384 28.3129 15.5168L38.4904 32.7177C38.9315 33.4631 38.9386 34.3575 38.5093 35.1103C38.0872 35.8506 37.3303 36.2926 36.4848 36.2926H3.51531C2.66969 36.2926 1.91282 35.8506 1.49075 35.1103C1.0615 34.3576 1.0686 33.4631 1.50965 32.7177L17.9942 4.85722C18.4203 4.13722 19.17 3.70742 20 3.70742C20.8299 3.70742 21.5797 4.13722 22.0057 4.85722L27.1753 13.5944C27.3401 13.8729 27.6995 13.9651 27.9779 13.8002C28.2564 13.6355 28.3486 13.2761 28.1837 12.9976L23.0142 4.26049C22.3751 3.18044 21.2484 2.53558 20 2.53558C18.7517 2.53558 17.6249 3.18036 16.9859 4.26049L0.50124 32.1209C-0.156896 33.2332 -0.16752 34.5677 0.472884 35.6907C1.10618 36.8013 2.24356 37.4643 3.51539 37.4643H36.4847C37.7565 37.4643 38.8939 36.8013 39.5272 35.6907C40.1675 34.5678 40.1569 33.2333 39.4988 32.1209Z" fill="#2D343A"/>
<path d="M21.1723 30.2399L20.1961 33.949H15.1507C14.8271 33.949 14.5648 34.2113 14.5648 34.5349C14.5648 34.8585 14.8271 35.1208 15.1507 35.1208H36.4846C37.3596 35.1193 37.9619 34.1803 37.4818 33.3143L20.9972 5.45388C20.5881 4.74762 19.5057 4.64615 19.0027 5.45388L2.51803 33.3143C2.08549 34.0152 2.52146 35.1195 3.51527 35.1209H12.9731C13.2966 35.1209 13.5589 34.8586 13.5589 34.535C13.5589 34.2113 13.2966 33.9491 12.9731 33.9491C12.9731 33.9491 3.51792 33.9481 3.51355 33.9474C3.5166 33.936 19.9998 6.06952 19.9998 6.06952C19.9998 6.06952 36.4832 33.9358 36.4864 33.9475C36.4819 33.9482 23.7928 33.9491 23.7928 33.9491L24.8078 30.2553C24.9612 29.69 24.824 29.088 24.4406 28.645L23.9367 28.0628L24.9797 27.3058L26.804 28.8785C27.3553 29.3537 28.1275 29.4414 28.7714 29.1018L29.8028 28.5579C30.2258 28.3349 30.5433 27.9431 30.6738 27.483C30.8063 27.0163 30.7434 26.5286 30.4967 26.1098C30.0308 25.3187 29.0292 25.0297 28.1924 25.4343L26.2208 23.7346C25.6002 23.1998 24.7038 23.1624 24.0408 23.6435L21.628 25.3947L20.7448 24.3741L21.7048 24.1856C22.4323 24.0429 23.0459 23.553 23.3466 22.8752L24.3403 20.6345C24.3442 20.6259 24.3478 20.6169 24.3513 20.608C24.5235 20.162 24.5054 19.6581 24.3014 19.2254C24.0947 18.7867 23.7267 18.4604 23.2655 18.3068C22.3741 18.0099 21.4054 18.4781 21.06 19.3726L20.4593 20.9286L18.9474 21.1262C18.5786 21.1743 18.2406 21.3345 17.9699 21.5895L15.6269 23.7965C15.367 24.0412 15.1897 24.3549 15.1142 24.7038L14.5281 27.4094C14.4304 27.86 14.5113 28.3232 14.7558 28.7139L16.1008 30.8632C16.4243 31.38 16.9816 31.6886 17.5918 31.6886C17.9606 31.6886 18.3149 31.5743 18.6165 31.3581C19.3677 30.8195 19.5642 29.7712 19.0638 28.9714L18.1149 27.4552L18.2446 26.8568L21.1723 30.2399ZM16.9954 27.8746L18.0707 29.5929C18.2409 29.865 18.1796 30.2296 17.934 30.4057C17.8327 30.4784 17.7144 30.5167 17.592 30.5167C17.3882 30.5167 17.2022 30.4138 17.0943 30.2415L15.7493 28.0922C15.6678 27.962 15.6408 27.8076 15.6733 27.6575L16.2595 24.9518C16.2847 24.8355 16.3438 24.7309 16.4304 24.6494L18.7735 22.4424C18.8637 22.3575 18.9764 22.304 19.0993 22.288L20.9565 22.0452C21.1693 22.0175 21.3499 21.8756 21.4271 21.6754L22.1534 19.7946C22.2709 19.4901 22.6036 19.3211 22.8955 19.4185C23.0498 19.4699 23.1728 19.5787 23.2417 19.7249C23.309 19.8677 23.3163 20.027 23.2626 20.1747L22.2757 22.4C22.1299 22.7288 21.8322 22.9665 21.4793 23.0358L19.5899 23.4068C19.2471 23.4485 18.8973 24.0049 19.2202 24.4023L21.0942 26.5681C21.2932 26.7982 21.6351 26.8377 21.8814 26.6589L24.7294 24.5918C24.9504 24.4313 25.2492 24.4439 25.4561 24.6222L27.7293 26.5817C27.9117 26.7391 28.172 26.7686 28.3852 26.6562L28.6808 26.5003C28.9696 26.348 29.3313 26.4396 29.4873 26.7044C29.5699 26.8445 29.5911 27.0075 29.5469 27.1629C29.5027 27.3186 29.3996 27.4459 29.2565 27.5214L28.225 28.0653C28.0104 28.1784 27.753 28.1492 27.5692 27.9909L25.3935 26.1154C25.1876 25.938 24.8868 25.9252 24.6668 26.085L22.732 27.4894C22.5992 27.5857 22.5129 27.7334 22.4941 27.8964C22.4753 28.0594 22.5258 28.2228 22.6331 28.3469L23.5546 29.4118C23.6824 29.5595 23.7281 29.7602 23.6774 29.9468L22.5786 33.9455L21.4077 33.9492L22.3841 30.2395C22.4333 30.0524 22.3871 29.8532 22.2605 29.707L18.3986 25.2441C18.1157 24.9498 17.5251 24.947 17.3276 25.5555L16.9194 27.4399C16.8871 27.5891 16.9144 27.7451 16.9954 27.8746Z" fill="#2D343A"/>
<path d="M15.1506 18.4363C14.0343 18.4363 13.1262 19.3445 13.1262 20.4607C13.1262 21.577 14.0343 22.4851 15.1506 22.4851C16.2669 22.4851 17.175 21.577 17.175 20.4607C17.175 19.3445 16.2669 18.4363 15.1506 18.4363ZM15.1506 21.3134C14.6804 21.3134 14.298 20.9309 14.298 20.4607C14.298 19.9906 14.6804 19.6081 15.1506 19.6081C15.6208 19.6081 16.0033 19.9906 16.0033 20.4607C16.0033 20.9309 15.6208 21.3134 15.1506 21.3134Z" fill="#2D343A"/>
<path d="M31.1337 31.6919C31.2066 31.7218 31.282 31.736 31.3562 31.736C31.5867 31.736 31.8053 31.599 31.8984 31.3727C32.0605 30.9781 32.1373 30.5444 32.1204 30.1185C32.1031 29.6807 31.9867 29.2437 31.7839 28.855C31.6342 28.5681 31.2802 28.4569 30.9934 28.6065C30.7066 28.7562 30.5954 29.1101 30.745 29.3969C30.831 29.5617 30.9363 29.8287 30.9496 30.1648C30.9599 30.4236 30.9131 30.6873 30.8146 30.9272C30.6915 31.2266 30.8345 31.5689 31.1337 31.6919Z" fill="#2D343A"/>
<path d="M17.4783 18.2512C17.5622 18.2512 17.6475 18.2331 17.7285 18.1947C18.0281 18.0529 18.3436 17.9425 18.6658 17.8667C19.0333 17.7802 19.4101 17.7384 19.7901 17.7416C20.1132 17.7483 20.3784 17.4848 20.3813 17.1612C20.3844 16.8377 20.1245 16.5729 19.8009 16.57C19.3288 16.5644 18.8564 16.6181 18.3974 16.7261C17.9949 16.8208 17.6012 16.9587 17.2272 17.1357C16.9347 17.2741 16.8099 17.6235 16.9483 17.9159C17.0485 18.1274 17.2588 18.2512 17.4783 18.2512Z" fill="#2D343A"/>
</g>
<defs>
<clipPath id="clip0_11_328">
<rect width="40" height="40" fill="white"/>
</clipPath>
</defs>
</svg>
