<svg width="40" height="40" viewBox="0 0 40 40" fill="none" xmlns="http://www.w3.org/2000/svg">
<g clip-path="url(#clip0_11_364)">
<path d="M39.4525 23.2288C39.1311 22.8038 38.6745 22.5011 38.158 22.3705C37.6415 22.24 37.0959 22.2894 36.6112 22.5106L30.625 25.2731V22.6038C30.6235 21.3843 30.8744 20.1778 31.3619 19.06L36.1212 8.1125C36.3536 7.55323 36.3593 6.92554 36.1373 6.3621C35.9153 5.79866 35.4829 5.34362 34.9315 5.09317C34.3801 4.84271 33.753 4.81647 33.1826 5.01999C32.6122 5.2235 32.1433 5.64083 31.875 6.18375L28.8125 12.6525L30.3687 2.92187C30.4609 2.34003 30.3244 1.74508 29.9878 1.26164C29.6512 0.778194 29.1405 0.443766 28.5628 0.328404C27.9851 0.213043 27.3852 0.325698 26.8887 0.642773C26.3922 0.959847 26.0377 1.45674 25.8994 2.02937L23.5562 11.7756L23.18 3.125C23.1592 2.62738 22.9497 2.15636 22.594 1.80774C22.2383 1.45912 21.7631 1.25909 21.2652 1.24834C20.7673 1.2376 20.2839 1.41693 19.9135 1.74988C19.5431 2.08282 19.3134 2.54436 19.2712 3.04062L18.4719 12.2362C18.2389 11.9808 17.9944 11.7371 17.7381 11.505L16.0131 6.61687C15.8434 6.13848 15.5002 5.7413 15.0514 5.50404C14.6027 5.26678 14.0812 5.20676 13.5903 5.33588C13.0994 5.46499 12.6749 5.77382 12.401 6.20115C12.127 6.62849 12.0236 7.14314 12.1112 7.64313L12.3331 8.90063C10.7996 8.64887 9.22953 8.73674 7.73369 9.15803C6.23784 9.57931 4.85269 10.3237 3.67596 11.3388C2.49924 12.3539 1.55962 13.6148 0.923414 15.0326C0.287209 16.4505 -0.0300771 17.9907 -0.00605522 19.5445C0.0179667 21.0984 0.382711 22.628 1.06244 24.0255C1.74217 25.423 2.72031 26.6543 3.92786 27.6325C5.1354 28.6107 6.5429 29.3119 8.05105 29.6868C9.5592 30.0616 11.1312 30.1009 12.6562 29.8019L12.9525 32.3219C13.0615 33.2459 13.0141 34.1817 12.8125 35.09L11.89 39.2394C11.8697 39.3307 11.8701 39.4255 11.8913 39.5166C11.9126 39.6078 11.954 39.693 12.0125 39.766C12.0711 39.839 12.1453 39.898 12.2296 39.9385C12.314 39.979 12.4064 40 12.5 40H22.5C22.6441 40 22.7837 39.9503 22.8953 39.8592C23.007 39.7681 23.0837 39.6412 23.1125 39.5L23.3244 38.4375C23.4254 37.9271 23.6657 37.4546 24.0187 37.0724C24.3717 36.6902 24.8236 36.4131 25.3244 36.2719L27.7112 35.5894C30.6537 34.7469 33.2011 32.8862 34.8987 30.3394C35.681 29.1645 36.671 28.1422 37.82 27.3225L38.945 26.52C39.1978 26.3395 39.4119 26.1102 39.5748 25.8457C39.7378 25.5812 39.8462 25.2869 39.8937 24.9799C39.9412 24.6729 39.9269 24.3595 39.8515 24.0581C39.7762 23.7568 39.6414 23.4735 39.455 23.225L39.4525 23.2288ZM27.1106 2.32062C27.1741 2.0628 27.3347 1.83941 27.5588 1.69697C27.7829 1.55454 28.0533 1.50404 28.3137 1.556C28.5741 1.60795 28.8044 1.75835 28.9567 1.97587C29.109 2.1934 29.1715 2.46128 29.1312 2.72375L26.9612 16.2863C26.5963 16.1562 26.2195 16.0622 25.8362 16.0056L24.7737 15.8544C24.4787 15.8119 24.1819 15.7788 23.8844 15.7463L27.1106 2.32062ZM20.5169 3.1475C20.5321 2.96787 20.6151 2.80078 20.7492 2.68025C20.8832 2.55971 21.0582 2.49479 21.2384 2.49869C21.4187 2.50259 21.5906 2.57503 21.7193 2.70125C21.848 2.82748 21.9238 2.998 21.9312 3.17812L22.4725 15.6338C21.8387 15.6087 21.204 15.6225 20.5719 15.675C20.3163 14.988 19.9899 14.3295 19.5981 13.71L20.5169 3.1475ZM13.3425 7.425C13.3084 7.23358 13.3476 7.03633 13.4523 6.87251C13.557 6.70869 13.7196 6.5903 13.9077 6.5409C14.0957 6.49151 14.2955 6.51472 14.4672 6.60593C14.6389 6.69714 14.77 6.84965 14.8344 7.03312L15.9506 10.1956C15.2278 9.77245 14.4571 9.43676 13.655 9.19563L13.3425 7.425ZM1.24998 19.375C1.24998 16.8886 2.2377 14.504 3.99585 12.7459C5.75401 10.9877 8.13857 10 10.625 10C13.1114 10 15.496 10.9877 17.2541 12.7459C19.0123 14.504 20 16.8886 20 19.375C20.0076 21.5138 19.2754 23.5894 17.9275 25.25C17.8599 25.3337 17.8151 25.4334 17.7974 25.5395C17.7796 25.6456 17.7896 25.7545 17.8262 25.8556L18.875 28.7394L16.0975 27.35C16.0027 27.3027 15.8975 27.2802 15.7917 27.2847C15.6858 27.2891 15.5829 27.3204 15.4925 27.3756C14.0726 28.2438 12.4469 28.7176 10.7829 28.7484C9.11891 28.7791 7.47682 28.3657 6.02582 27.5506C4.57481 26.7355 3.36737 25.5482 2.52791 24.1112C1.68844 22.6741 1.24732 21.0393 1.24998 19.375ZM38.6556 24.7919C38.6343 24.9342 38.5845 25.0708 38.5094 25.1935C38.4342 25.3162 38.3352 25.4226 38.2181 25.5063L37.0931 26.3088C35.8203 27.2165 34.7238 28.3487 33.8575 29.65C32.324 31.9491 30.0233 33.6284 27.3662 34.3881L24.9794 35.0706C24.2576 35.2749 23.6065 35.6749 23.0981 36.2265C22.5898 36.7781 22.2441 37.4596 22.0994 38.1956L21.9875 38.75H13.2794L14.0325 35.3613C14.2651 34.3154 14.3196 33.2378 14.1937 32.1738L13.8769 29.48C14.5591 29.2592 15.2174 28.9705 15.8419 28.6181L19.7206 30.5556C19.8325 30.6116 19.9586 30.6328 20.0827 30.6163C20.2067 30.5998 20.323 30.5465 20.4163 30.4632C20.5097 30.3799 20.576 30.2705 20.6065 30.1491C20.637 30.0278 20.6304 29.9001 20.5875 29.7825L19.1194 25.75C19.2756 25.5419 19.4212 25.3269 19.5612 25.1087C21.5269 23.6701 23.8522 22.8031 26.28 22.6038L27.5519 22.5C27.6339 22.4932 27.7139 22.4703 27.7871 22.4326C27.8603 22.3949 27.9254 22.3431 27.9786 22.2803C28.0318 22.2174 28.0721 22.1447 28.0973 22.0662C28.1224 21.9878 28.1318 21.9052 28.125 21.8231C28.1182 21.741 28.0953 21.6611 28.0576 21.5879C28.0198 21.5147 27.9681 21.4496 27.9052 21.3964C27.8424 21.3432 27.7697 21.3028 27.6912 21.2777C27.6128 21.2526 27.5302 21.2432 27.4481 21.25L26.1762 21.3562C24.3768 21.5055 22.6212 21.99 21 22.785C20.8631 22.8513 20.7337 22.9325 20.5994 23.0037C21.3266 21.0507 21.4479 18.9237 20.9475 16.9006C22.1687 16.8431 23.3927 16.9071 24.6012 17.0919L25.6637 17.2438C26.6651 17.3889 27.593 17.8529 28.31 18.5669C28.4279 18.6807 28.5857 18.7437 28.7496 18.7423C28.9135 18.7409 29.0702 18.6751 29.1861 18.5593C29.302 18.4434 29.3677 18.2866 29.3691 18.1228C29.3706 17.9589 29.3076 17.801 29.1937 17.6831C28.889 17.3807 28.5522 17.1125 28.1894 16.8831L33 6.71875C33.0898 6.52889 33.2328 6.36922 33.4117 6.25919C33.5906 6.14915 33.7976 6.09349 34.0075 6.09899C34.2175 6.10449 34.4213 6.1709 34.5942 6.29015C34.767 6.40939 34.9015 6.57633 34.9812 6.77063C35.0368 6.90458 35.0646 7.04839 35.0631 7.19339C35.0616 7.3384 35.0308 7.4816 34.9725 7.61437L30.2156 18.5625C29.6598 19.8372 29.3736 21.2131 29.375 22.6038V26.25C29.375 26.3549 29.4014 26.4581 29.4517 26.5501C29.5021 26.6421 29.5748 26.7199 29.6631 26.7765C29.7515 26.833 29.8526 26.8664 29.9572 26.8735C30.0619 26.8807 30.1666 26.8614 30.2619 26.8175L37.1369 23.6456C37.3615 23.543 37.6145 23.52 37.854 23.5804C38.0935 23.6409 38.3053 23.7812 38.4544 23.9781C38.5409 24.0933 38.6033 24.2247 38.6379 24.3645C38.6725 24.5043 38.6785 24.6497 38.6556 24.7919Z" fill="white"/>
<path d="M27.2206 23.1875C25.5691 24.0145 24.1104 25.1803 22.9397 26.609C21.769 28.0376 20.9126 29.6969 20.4263 31.4788L20.0219 32.9606C19.9783 33.1206 20 33.2913 20.0823 33.4352C20.1646 33.5792 20.3007 33.6845 20.4606 33.7281C20.6206 33.7717 20.7913 33.75 20.9352 33.6677C21.0792 33.5854 21.1845 33.4493 21.2281 33.2894L21.6319 31.8075C22.0722 30.1957 22.8472 28.6947 23.9064 27.4024C24.9657 26.1102 26.2853 25.0556 27.7794 24.3075C27.8528 24.2708 27.9183 24.22 27.9722 24.158C28.026 24.096 28.0671 24.024 28.0931 23.9461C28.1191 23.8682 28.1295 23.786 28.1237 23.7041C28.1179 23.6222 28.0961 23.5422 28.0594 23.4687C28.0227 23.3953 27.9719 23.3298 27.9099 23.276C27.8479 23.2221 27.7759 23.181 27.698 23.155C27.5407 23.1025 27.369 23.1147 27.2206 23.1888V23.1875Z" fill="white"/>
<path d="M16.0081 22.9144L15.0219 21.7306C15.1513 21.4937 15.2612 21.2466 15.3506 20.9919L16.3244 20.8294C16.6558 21.1013 17.0713 21.2499 17.5 21.25C17.9973 21.25 18.4742 21.0525 18.8258 20.7008C19.1775 20.3492 19.375 19.8723 19.375 19.375C19.375 18.8777 19.1775 18.4008 18.8258 18.0492C18.4742 17.6975 17.9973 17.5 17.5 17.5C17.0713 17.5001 16.6558 17.6487 16.3244 17.9206L15.3506 17.7581C15.2612 17.5034 15.1513 17.2563 15.0219 17.0194L16.0087 15.8356C16.2177 15.5846 16.3253 15.2645 16.3104 14.9381C16.2955 14.6118 16.1591 14.3029 15.9281 14.0719C15.6971 13.841 15.3881 13.7048 15.0618 13.6899C14.7354 13.6751 14.4154 13.7828 14.1644 13.9919L12.9806 14.9781C12.7437 14.8487 12.4966 14.7388 12.2419 14.6494L12.0794 13.6756C12.3513 13.3442 12.4999 12.9287 12.5 12.5C12.5 12.0027 12.3025 11.5258 11.9508 11.1742C11.5992 10.8225 11.1223 10.625 10.625 10.625C10.1277 10.625 9.65081 10.8225 9.29917 11.1742C8.94754 11.5258 8.75 12.0027 8.75 12.5C8.7501 12.9287 8.89874 13.3442 9.17063 13.6756L9.00813 14.6494C8.75338 14.7388 8.50632 14.8487 8.26937 14.9781L7.08562 13.9912C6.83456 13.7823 6.51446 13.6747 6.18814 13.6896C5.86183 13.7045 5.55288 13.8409 5.32194 14.0719C5.091 14.3029 4.95475 14.6119 4.93994 14.9382C4.92512 15.2646 5.03282 15.5846 5.24188 15.8356L6.22813 17.0194C6.09872 17.2563 5.98878 17.5034 5.89937 17.7581L4.92563 17.9206C4.59415 17.6487 4.17872 17.5001 3.75 17.5C3.25272 17.5 2.77581 17.6975 2.42417 18.0492C2.07254 18.4008 1.875 18.8777 1.875 19.375C1.875 19.8723 2.07254 20.3492 2.42417 20.7008C2.77581 21.0525 3.25272 21.25 3.75 21.25C4.17872 21.2499 4.59415 21.1013 4.92563 20.8294L5.89937 20.9919C5.98878 21.2466 6.09872 21.4937 6.22813 21.7306L5.24125 22.9144C5.03228 23.1654 4.92469 23.4855 4.93962 23.8119C4.95454 24.1382 5.0909 24.4471 5.32191 24.6781C5.55293 24.909 5.86193 25.0452 6.18824 25.0601C6.51456 25.0749 6.83463 24.9672 7.08562 24.7581L8.26937 23.7719C8.50632 23.9013 8.75338 24.0112 9.00813 24.1006L9.17063 25.0744C8.89874 25.4058 8.7501 25.8213 8.75 26.25C8.75 26.7473 8.94754 27.2242 9.29917 27.5758C9.65081 27.9275 10.1277 28.125 10.625 28.125C11.1223 28.125 11.5992 27.9275 11.9508 27.5758C12.3025 27.2242 12.5 26.7473 12.5 26.25C12.4999 25.8213 12.3513 25.4058 12.0794 25.0744L12.2419 24.1006C12.4966 24.0112 12.7437 23.9013 12.9806 23.7719L14.1644 24.7587C14.4154 24.9677 14.7355 25.0753 15.0619 25.0604C15.3882 25.0455 15.6971 24.9091 15.9281 24.6781C16.159 24.4471 16.2952 24.1381 16.3101 23.8118C16.3249 23.4854 16.2172 23.1654 16.0081 22.9144ZM15.0444 23.7944C15.0336 23.8043 15.0197 23.8101 15.0051 23.8107C14.9904 23.8114 14.976 23.807 14.9644 23.7981L13.4375 22.5262C13.334 22.4401 13.2055 22.3896 13.071 22.3824C12.9365 22.3752 12.8033 22.4116 12.6912 22.4862C12.339 22.725 11.9483 22.9013 11.5363 23.0075C11.4182 23.0371 11.3114 23.1006 11.2289 23.1901C11.1464 23.2796 11.0918 23.3912 11.0719 23.5112L10.7931 25.1825C10.7751 25.291 10.7861 25.4024 10.825 25.5054C10.8638 25.6083 10.9292 25.6992 11.0144 25.7687C11.0872 25.8262 11.1461 25.8993 11.1869 25.9826C11.2277 26.0659 11.2493 26.1573 11.25 26.25C11.25 26.4158 11.1842 26.5747 11.0669 26.6919C10.9497 26.8092 10.7908 26.875 10.625 26.875C10.4592 26.875 10.3003 26.8092 10.1831 26.6919C10.0658 26.5747 10 26.4158 10 26.25C10.0006 26.1574 10.022 26.066 10.0625 25.9827C10.1031 25.8995 10.1618 25.8263 10.2344 25.7687C10.3196 25.6992 10.3849 25.6083 10.4238 25.5054C10.4626 25.4024 10.4736 25.291 10.4556 25.1825L10.1769 23.5112C10.1569 23.3912 10.1024 23.2796 10.0199 23.1901C9.93737 23.1006 9.83055 23.0371 9.7125 23.0075C9.30044 22.9013 8.90973 22.725 8.5575 22.4862C8.4454 22.4116 8.3122 22.3752 8.17774 22.3824C8.04327 22.3896 7.91473 22.4401 7.81125 22.5262L6.28562 23.7981C6.27396 23.807 6.25956 23.8114 6.24495 23.8107C6.23033 23.8101 6.21641 23.8043 6.20563 23.7944C6.19573 23.7836 6.18994 23.7697 6.18925 23.7551C6.18857 23.7404 6.19303 23.726 6.20188 23.7144L7.47375 22.1875C7.55992 22.084 7.61036 21.9555 7.61757 21.821C7.62478 21.6865 7.58836 21.5533 7.51375 21.4412C7.27501 21.089 7.09868 20.6983 6.9925 20.2863C6.96287 20.1682 6.89941 20.0614 6.80993 19.9789C6.72044 19.8964 6.60881 19.8418 6.48875 19.8219L4.8175 19.5431C4.70892 19.5241 4.59724 19.5347 4.49412 19.5736C4.391 19.6125 4.30021 19.6784 4.23125 19.7644C4.17379 19.8372 4.10072 19.8961 4.01742 19.9369C3.93413 19.9777 3.84274 19.9993 3.75 20C3.58424 20 3.42527 19.9342 3.30806 19.8169C3.19085 19.6997 3.125 19.5408 3.125 19.375C3.125 19.2092 3.19085 19.0503 3.30806 18.9331C3.42527 18.8158 3.58424 18.75 3.75 18.75C3.84264 18.7506 3.93396 18.772 4.01725 18.8125C4.10054 18.8531 4.17367 18.9118 4.23125 18.9844C4.30047 19.07 4.39128 19.1357 4.49433 19.1746C4.59738 19.2135 4.70894 19.2242 4.8175 19.2056L6.48875 18.9269C6.60881 18.9069 6.72044 18.8524 6.80993 18.7699C6.89941 18.6874 6.96287 18.5805 6.9925 18.4625C7.09868 18.0504 7.27501 17.6597 7.51375 17.3075C7.58836 17.1954 7.62478 17.0622 7.61757 16.9277C7.61036 16.7933 7.55992 16.6647 7.47375 16.5612L6.20188 15.0356C6.19303 15.024 6.18857 15.0096 6.18925 14.9949C6.18994 14.9803 6.19573 14.9664 6.20563 14.9556C6.21594 14.9449 6.22999 14.9385 6.24488 14.9378C6.25977 14.9371 6.27435 14.9421 6.28562 14.9519L7.8125 16.2231C7.91598 16.3093 8.04452 16.3597 8.17899 16.3669C8.31345 16.3742 8.44665 16.3377 8.55875 16.2631C8.91115 16.0248 9.30181 15.8487 9.71375 15.7425C9.8318 15.7129 9.93862 15.6494 10.0211 15.5599C10.1036 15.4704 10.1582 15.3588 10.1781 15.2387L10.4569 13.5675C10.4749 13.459 10.4639 13.3476 10.425 13.2446C10.3862 13.1417 10.3208 13.0508 10.2356 12.9813C10.1628 12.9238 10.1039 12.8507 10.0631 12.7674C10.0223 12.6841 10.0007 12.5927 10 12.5C10 12.3342 10.0658 12.1753 10.1831 12.0581C10.3003 11.9408 10.4592 11.875 10.625 11.875C10.7908 11.875 10.9497 11.9408 11.0669 12.0581C11.1842 12.1753 11.25 12.3342 11.25 12.5C11.2494 12.5926 11.228 12.684 11.1875 12.7673C11.1469 12.8505 11.0882 12.9237 11.0156 12.9813C10.9304 13.0508 10.8651 13.1417 10.8262 13.2446C10.7874 13.3476 10.7764 13.459 10.7944 13.5675L11.0731 15.2387C11.0931 15.3588 11.1476 15.4704 11.2301 15.5599C11.3126 15.6494 11.4195 15.7129 11.5375 15.7425C11.9496 15.8487 12.3403 16.025 12.6925 16.2637C12.8046 16.3384 12.9378 16.3748 13.0723 16.3676C13.2067 16.3604 13.3353 16.3099 13.4388 16.2238L14.9644 14.9519C14.9761 14.9461 14.9893 14.9441 15.0022 14.9462C15.0152 14.9483 15.0271 14.9544 15.0363 14.9637C15.0456 14.9729 15.0517 14.9848 15.0538 14.9978C15.0559 15.0107 15.0539 15.0239 15.0481 15.0356L13.7769 16.5625C13.6907 16.666 13.6403 16.7945 13.6331 16.929C13.6258 17.0635 13.6623 17.1967 13.7369 17.3088C13.9752 17.6611 14.1513 18.0518 14.2575 18.4637C14.2871 18.5818 14.3506 18.6886 14.4401 18.7711C14.5296 18.8536 14.6412 18.9082 14.7612 18.9281L16.4325 19.2069C16.541 19.2249 16.6524 19.2139 16.7554 19.175C16.8583 19.1362 16.9492 19.0708 17.0187 18.9856C17.0762 18.9128 17.1493 18.8539 17.2326 18.8131C17.3159 18.7723 17.4073 18.7507 17.5 18.75C17.6658 18.75 17.8247 18.8158 17.9419 18.9331C18.0592 19.0503 18.125 19.2092 18.125 19.375C18.125 19.5408 18.0592 19.6997 17.9419 19.8169C17.8247 19.9342 17.6658 20 17.5 20C17.4074 19.9994 17.316 19.978 17.2327 19.9375C17.1495 19.8969 17.0763 19.8382 17.0187 19.7656C16.9492 19.6804 16.8583 19.6151 16.7554 19.5762C16.6524 19.5374 16.541 19.5264 16.4325 19.5444L14.7612 19.8231C14.6412 19.8431 14.5296 19.8976 14.4401 19.9801C14.3506 20.0626 14.2871 20.1695 14.2575 20.2875C14.1513 20.6994 13.9752 21.0901 13.7369 21.4425C13.6623 21.5546 13.6258 21.6878 13.6331 21.8223C13.6403 21.9567 13.6907 22.0853 13.7769 22.1887L15.0481 23.7144C15.057 23.726 15.0614 23.7404 15.0607 23.7551C15.0601 23.7697 15.0543 23.7836 15.0444 23.7944Z" fill="white"/>
<path d="M9.8493 16.82C9.78639 16.7673 9.7137 16.7274 9.6354 16.7028C9.5571 16.6781 9.47471 16.6692 9.39293 16.6764C9.31116 16.6836 9.2316 16.7068 9.15881 16.7447C9.08601 16.7827 9.02141 16.8346 8.96867 16.8975C8.91594 16.9604 8.87611 17.0331 8.85147 17.1114C8.82682 17.1897 8.81784 17.2721 8.82504 17.3539C8.83224 17.4356 8.85547 17.5152 8.89341 17.588C8.93135 17.6608 8.98326 17.7254 9.04617 17.7781L9.52555 18.18C9.6526 18.2865 9.81676 18.3382 9.98191 18.3236C10.1471 18.3091 10.2997 18.2295 10.4062 18.1025C10.5127 17.9754 10.5643 17.8113 10.5498 17.6461C10.5353 17.481 10.4557 17.3284 10.3287 17.2219L9.8493 16.82Z" fill="white"/>
<path d="M13.6525 19.5831C13.616 19.5096 13.5654 19.4439 13.5035 19.3899C13.4416 19.3359 13.3697 19.2947 13.2919 19.2685C13.214 19.2423 13.1318 19.2317 13.0499 19.2374C12.968 19.243 12.8879 19.2647 12.8144 19.3013L12.255 19.5788C12.1065 19.6524 11.9933 19.7821 11.9404 19.9392C11.8875 20.0963 11.8992 20.268 11.9728 20.4166C12.0465 20.5651 12.1762 20.6783 12.3333 20.7312C12.4904 20.7841 12.6621 20.7724 12.8107 20.6988L13.37 20.4213C13.4436 20.3848 13.5094 20.3342 13.5634 20.2724C13.6175 20.2105 13.6588 20.1386 13.685 20.0608C13.7113 19.9829 13.7219 19.9007 13.7163 19.8187C13.7107 19.7368 13.6891 19.6567 13.6525 19.5831Z" fill="white"/>
<path d="M9.59315 20.1706C9.57487 20.0894 9.54052 20.0126 9.49214 19.9448C9.44375 19.877 9.3823 19.8195 9.3114 19.7758C9.2405 19.7321 9.16157 19.703 9.07926 19.6902C8.99696 19.6775 8.91292 19.6813 8.83211 19.7014C8.75129 19.7216 8.67532 19.7577 8.60866 19.8076C8.542 19.8576 8.48599 19.9203 8.44393 19.9922C8.40187 20.0641 8.37461 20.1437 8.36374 20.2263C8.35287 20.3089 8.35862 20.3928 8.38065 20.4731L8.5319 21.0794C8.56561 21.2145 8.64352 21.3346 8.75324 21.4204C8.86296 21.5062 8.99822 21.5529 9.13753 21.5531C9.18874 21.5534 9.23978 21.5471 9.2894 21.5344C9.45016 21.4942 9.5884 21.3919 9.67373 21.2498C9.75905 21.1078 9.78447 20.9377 9.7444 20.7769L9.59315 20.1706Z" fill="white"/>
</g>
<defs>
<clipPath id="clip0_11_364">
<rect width="40" height="40" fill="white"/>
</clipPath>
</defs>
</svg>
