<svg width="40" height="40" viewBox="0 0 40 40" fill="none" xmlns="http://www.w3.org/2000/svg">
<g clip-path="url(#clip0_11_348)">
<path d="M13.2023 21.1162C12.922 20.7896 12.4302 20.7512 12.1027 21.0305C11.181 21.8162 10.6026 22.8967 10.4594 24.0918L8.07793 21.3344V17.138C8.07793 14.4926 5.92566 12.3403 3.28027 12.3403C2.84887 12.3403 2.49902 12.6901 2.49902 13.1216V23.0386C2.49902 23.1643 2.52941 23.2882 2.58754 23.3998L8.87895 35.4673V39.2187C8.87895 39.6501 9.22879 40 9.6602 40H17.561C17.9924 40 18.3422 39.6501 18.3422 39.2187V28.7705C18.3422 27.6952 17.9564 26.6538 17.2562 25.8382L13.2023 21.1162ZM16.7796 38.4375H10.4414V35.2758C10.4414 35.1501 10.411 35.0262 10.3529 34.9146L4.06145 22.8471V13.9982C5.46918 14.3485 6.51535 15.6234 6.51535 17.138V21.6251C6.51535 21.8126 6.58277 21.9938 6.70535 22.1357L12.7888 29.1792L12.8161 29.2108C13.0982 29.5374 13.5915 29.5735 13.9179 29.2914C14.2445 29.0094 14.2806 28.516 13.9986 28.1895L12.769 26.7658C12.2054 26.1132 11.9311 25.2802 11.9968 24.4204C12.0422 23.8257 12.2464 23.2684 12.5852 22.7962L16.0705 26.856C16.5278 27.3885 16.7796 28.0685 16.7796 28.7705L16.7796 38.4375Z" fill="white"/>
<path d="M33.2943 22.1361C33.417 21.9942 33.4847 21.8127 33.4847 21.6251V17.3724C33.4847 15.6852 34.4965 14.3519 35.9386 13.9963V23.0385C35.9386 23.4699 36.2884 23.8198 36.7198 23.8198C37.1512 23.8198 37.5011 23.4699 37.5011 23.0385V13.1216C37.5011 12.6901 37.1512 12.3403 36.7198 12.3403C35.3783 12.3403 34.1487 12.8716 33.2574 13.8364C32.3964 14.7685 31.9222 16.0243 31.9222 17.3724V21.3341L29.5403 24.0884C29.3964 22.8948 28.8183 21.8155 27.8974 21.0305C27.5698 20.7512 27.0781 20.7896 26.7978 21.1162L22.7441 25.838C22.0437 26.6537 21.658 27.6951 21.658 28.7705V39.2187C21.658 39.6501 22.0078 40 22.4392 40H30.34C30.7714 40 31.1212 39.6501 31.1212 39.2187V35.4672L34.2077 29.5473C34.4073 29.1647 34.2587 28.6927 33.8762 28.4933C33.4937 28.2941 33.0217 28.4425 32.8223 28.8249L29.6473 34.9146C29.5891 35.0262 29.5587 35.1501 29.5587 35.2758V38.4375H23.2205V28.7705C23.2205 28.0685 23.4723 27.3886 23.9296 26.8559L27.4148 22.7962C27.7537 23.2684 27.9578 23.8257 28.0033 24.4205C28.0644 25.2219 27.8305 25.9999 27.3432 26.629L25.8516 28.3537C25.5696 28.6798 25.6051 29.1727 25.9308 29.4551C26.2565 29.7373 26.7495 29.7026 27.0323 29.3772L33.2943 22.1361Z" fill="white"/>
<path d="M22.8668 21.1199V18.1207H24.8839C25.1083 18.1207 25.322 18.0241 25.4703 17.8556C25.6186 17.6871 25.6873 17.463 25.6588 17.2402L24.7805 10.3781C24.78 10.3741 24.7795 10.3702 24.7789 10.3663C24.7607 10.2398 24.7368 10.1147 24.7089 9.99062C25.6753 10.813 26.3306 11.9463 26.5533 13.2277L26.773 14.4912C26.8391 14.871 27.169 15.1388 27.5418 15.1388C27.5862 15.1388 27.6314 15.1349 27.6766 15.1271C28.1017 15.0532 28.3864 14.6487 28.3125 14.2236L28.0928 12.9602C27.721 10.8207 26.4129 8.99984 24.5042 7.96438L22.381 6.8125C23.2271 6.10477 23.7664 5.04187 23.7664 3.85516C23.7665 1.72938 22.0371 0 19.9114 0C17.7857 0 16.0563 1.72938 16.0563 3.85508C16.0563 5.0418 16.5957 6.10469 17.4417 6.81242L15.3185 7.96438C13.4098 8.99984 12.1018 10.8208 11.7298 12.9602L11.5102 14.2237C11.4364 14.6488 11.721 15.0532 12.1462 15.1271C12.1914 15.135 12.2364 15.1388 12.2809 15.1388C12.6536 15.1388 12.9837 14.8709 13.0497 14.4911L13.2693 13.2277C13.4921 11.9463 14.1474 10.813 15.1138 9.99062C15.086 10.1146 15.0621 10.2398 15.0439 10.3663C15.0432 10.3703 15.0427 10.3742 15.0422 10.3781L14.164 17.2403C14.1355 17.463 14.2042 17.6872 14.3525 17.8557C14.5007 18.0241 14.7145 18.1208 14.9389 18.1208H16.956V21.12C16.956 21.5514 17.3058 21.9012 17.7372 21.9012C18.1686 21.9012 18.5185 21.5514 18.5185 21.12V18.1208H21.3043V21.12C21.3043 21.5514 21.6542 21.9012 22.0856 21.9012C22.517 21.9012 22.8668 21.5513 22.8668 21.1199ZM19.9114 1.5625C21.1756 1.5625 22.204 2.59094 22.204 3.85508C22.204 5.1193 21.1756 6.14773 19.9114 6.14773C18.6472 6.14773 17.6188 5.1193 17.6188 3.85508C17.6188 2.59094 18.6473 1.5625 19.9114 1.5625ZM16.5914 10.5829C16.8292 8.94477 18.2555 7.71016 19.9114 7.71016C21.5672 7.71016 22.9935 8.94477 23.2315 10.5829L23.9963 16.5581H15.8265L16.5914 10.5829Z" fill="white"/>
<path d="M35.7937 25.9219C35.6323 25.528 35.1662 25.3361 34.774 25.4992C34.3806 25.6629 34.1876 26.1245 34.3515 26.5188C34.5147 26.9113 34.9772 27.1059 35.371 26.9422C35.7633 26.7791 35.9575 26.3148 35.7937 25.9219Z" fill="white"/>
</g>
<defs>
<clipPath id="clip0_11_348">
<rect width="40" height="40" fill="white"/>
</clipPath>
</defs>
</svg>
